<svg xmlns="http://www.w3.org/2000/svg" width="16.786" height="30.099" viewBox="0 0 16.786 30.099">
  <path id="Beverage_Juice" data-name="Beverage &amp; Juice" d="M902.054,397.55v-.308c0-1.679,0-3.358,0-5.038,0-.222-.042-.322-.284-.384a8.283,8.283,0,0,1-6.237-8.631c.107-1.492.345-2.976.529-4.462q.285-2.3.581-4.607a.619.619,0,0,1,.717-.628q6.492,0,12.984,0a.619.619,0,0,1,.708.637c.353,2.8.694,5.61,1.062,8.412a8.369,8.369,0,0,1-5.907,9.209c-.557.166-.557.166-.558.766q0,2.354,0,4.708v.312c.586.085,1.159.15,1.725.253a8.729,8.729,0,0,1,3.154,1.073,3.367,3.367,0,0,1,.586.463,1.528,1.528,0,0,1,.012,2.31,4.275,4.275,0,0,1-1.548.946,13.865,13.865,0,0,1-3.972.832,18.974,18.974,0,0,1-5.841-.354,14.612,14.612,0,0,1-2.177-.73,3.358,3.358,0,0,1-.962-.648,1.527,1.527,0,0,1-.034-2.37,4.95,4.95,0,0,1,2.034-1.105,14,14,0,0,1,3.078-.608C901.816,397.589,901.924,397.569,902.054,397.55Zm8.7-16.108c-.38.122-.734.219-1.077.348a6.2,6.2,0,0,1-4.339.021c-1.074-.373-2.156-.723-3.236-1.081a4.628,4.628,0,0,0-2.618-.262c-.8.2-1.588.465-2.378.712a.267.267,0,0,0-.149.184,13.932,13.932,0,0,0-.2,3.19,7.133,7.133,0,0,0,10.034,5.7,6.964,6.964,0,0,0,4.182-6.046A12.033,12.033,0,0,0,910.755,381.443ZM897.783,374.7l-.646,5.189c.229-.071.414-.114.589-.184a6.769,6.769,0,0,1,5.136,0c1.058.411,2.154.725,3.238,1.067a3.913,3.913,0,0,0,2.156.148c.743-.188,1.473-.43,2.2-.666.063-.021.125-.184.114-.273-.145-1.24-.3-2.478-.456-3.716q-.1-.781-.2-1.562Zm4.271,23.98c-1.03.221-2.015.384-2.97.655a6.269,6.269,0,0,0-1.549.75c-.383.238-.377.519-.007.786a4.787,4.787,0,0,0,1.119.617,14.889,14.889,0,0,0,5.391.788,14.384,14.384,0,0,0,5.115-.822,4.464,4.464,0,0,0,.9-.473c.527-.36.523-.64.007-1a3.729,3.729,0,0,0-.6-.339,11.677,11.677,0,0,0-3.805-.876c0,.543,0,1.07,0,1.6,0,.5-.221.718-.709.72q-1.094,0-2.187,0a.613.613,0,0,1-.7-.7C902.051,399.863,902.054,399.335,902.054,398.684Zm1.221-6.591v7.77h1.158v-7.77Z" transform="translate(-895.465 -373.443)" fill="#212121" stroke="#fff" stroke-width="0.1"/>
</svg>
