<svg xmlns="http://www.w3.org/2000/svg" width="29.714" height="26" viewBox="0 0 29.714 26">
  <g id="coffee-cup" transform="translate(0 -32.001)">
    <g id="Group_5714" data-name="Group 5714" transform="translate(3.713 41.905)">
      <g id="Group_5713" data-name="Group 5713" transform="translate(0 0)">
        <path id="Path_17398" data-name="Path 17398" d="M83.179,202.654H65.845a1.859,1.859,0,0,0-1.857,1.857v1.238a11.733,11.733,0,0,0,6.368,10.456.619.619,0,1,0,.568-1.1,10.5,10.5,0,0,1-5.7-9.355v-1.238a.619.619,0,0,1,.619-.619H83.179a.619.619,0,0,1,.619.619v1.238a10.493,10.493,0,0,1-5.7,9.354.62.62,0,0,0,.285,1.17.611.611,0,0,0,.284-.069,11.728,11.728,0,0,0,6.369-10.455v-1.238A1.859,1.859,0,0,0,83.179,202.654Z" transform="translate(-63.988 -202.654)" fill="#212121"/>
      </g>
    </g>
    <g id="Group_5716" data-name="Group 5716" transform="translate(0 54.285)">
      <g id="Group_5715" data-name="Group 5715" transform="translate(0 0)">
        <path id="Path_17399" data-name="Path 17399" d="M28.43,416.349a.62.62,0,0,0-.572-.383H.619a.62.62,0,0,0-.438,1.057l1.388,1.389a4.307,4.307,0,0,0,3.064,1.269H23.842a4.315,4.315,0,0,0,3.067-1.269l1.388-1.389A.618.618,0,0,0,28.43,416.349Zm-2.4,1.189a3.078,3.078,0,0,1-2.189.906H4.633a3.078,3.078,0,0,1-2.189-.906l-.332-.332H26.364Z" transform="translate(0 -415.966)" fill="#212121"/>
      </g>
    </g>
    <g id="Group_5718" data-name="Group 5718" transform="translate(20.608 44.378)">
      <g id="Group_5717" data-name="Group 5717">
        <path id="Path_17400" data-name="Path 17400" d="M363,245.722c-1.668-1.072-4.332.092-4.631.227a.62.62,0,0,0,.514,1.128c.6-.271,2.511-.914,3.447-.311a1.759,1.759,0,0,1,.629,1.6c0,2.479-5,3.977-6.93,4.346l-.438.087a.619.619,0,0,0,.119,1.226.574.574,0,0,0,.12-.012l.435-.085c.324-.062,7.933-1.554,7.933-5.56A2.92,2.92,0,0,0,363,245.722Z" transform="translate(-355.093 -245.272)" fill="#212121"/>
      </g>
    </g>
    <g id="Group_5720" data-name="Group 5720" transform="translate(17.334 32.001)">
      <g id="Group_5719" data-name="Group 5719" transform="translate(0 0)">
        <path id="Path_17401" data-name="Path 17401" d="M300.39,36.72a3.709,3.709,0,0,0,0-4.486.619.619,0,1,0-.967.774,2.5,2.5,0,0,1,0,2.941,3.706,3.706,0,0,0,0,4.486.619.619,0,1,0,.967-.774A2.494,2.494,0,0,1,300.39,36.72Z" transform="translate(-298.666 -32.001)" fill="#212121"/>
      </g>
    </g>
    <g id="Group_5722" data-name="Group 5722" transform="translate(13.615 32.001)">
      <g id="Group_5721" data-name="Group 5721" transform="translate(0 0)">
        <path id="Path_17402" data-name="Path 17402" d="M236.32,36.728a3.706,3.706,0,0,0,0-4.486.619.619,0,1,0-.967.774,2.493,2.493,0,0,1,0,2.941,3.709,3.709,0,0,0,0,4.486.619.619,0,0,0,.967-.774A2.5,2.5,0,0,1,236.32,36.728Z" transform="translate(-234.597 -32.009)" fill="#212121"/>
      </g>
    </g>
    <g id="Group_5724" data-name="Group 5724" transform="translate(9.905 32.002)">
      <g id="Group_5723" data-name="Group 5723" transform="translate(0 0)">
        <path id="Path_17403" data-name="Path 17403" d="M172.39,36.741a3.709,3.709,0,0,0,0-4.486.619.619,0,0,0-.967.773,2.5,2.5,0,0,1,0,2.941,3.706,3.706,0,0,0,0,4.486.619.619,0,1,0,.967-.773A2.494,2.494,0,0,1,172.39,36.741Z" transform="translate(-170.666 -32.022)" fill="#212121"/>
      </g>
    </g>
  </g>
</svg>
