<?xml version="1.0" encoding="utf-8"?>
<!-- Generator: Adobe Illustrator 16.0.0, SVG Export Plug-In . SVG Version: 6.00 Build 0)  -->
<!DOCTYPE svg PUBLIC "-//W3C//DTD SVG 1.1//EN" "http://www.w3.org/Graphics/SVG/1.1/DTD/svg11.dtd">
<svg version="1.1" id="Layer_1" xmlns="http://www.w3.org/2000/svg" xmlns:xlink="http://www.w3.org/1999/xlink" x="0px" y="0px"
	 width="239.168px" height="239.189px" viewBox="0 0 239.168 239.189" enable-background="new 0 0 239.168 239.189"
	 xml:space="preserve">
<path fill-rule="evenodd" clip-rule="evenodd" d="M165.981,146.849c8.754,0,17.227-0.107,25.693,0.049
	c3.742,0.07,5.207-1.283,5.605-5.125c1.078-10.369,2.627-20.689,4.105-31.92c-4.33,0-7.928,0.001-11.523,0
	c-6.664-0.002-13.33-0.088-19.993,0.027c-3.153,0.056-4.472-0.996-4.341-4.36c0.238-6.156-0.048-12.33,0.104-18.491
	c0.307-12.572,4.674-16.935,17.355-17.351c5.16-0.169,10.334-0.17,15.492,0.007c3.076,0.105,4.068-1.054,4.014-4.075
	c-0.152-8.328,0.088-16.665-0.188-24.986c-0.049-1.468-1.834-4.129-2.814-4.128c-13.25,0.019-26.82-1.308-39.674,1.098
	c-21.482,4.022-31.48,21.746-32.399,42.364c-0.37,8.314-0.233,16.664,0.017,24.987c0.109,3.678-0.991,5.067-4.749,4.964
	c-7.492-0.205-14.995,0.039-22.49-0.105c-2.947-0.057-4.192,0.817-4.145,3.952c0.145,9.495,0.166,18.995-0.009,28.489
	c-0.065,3.545,1.367,4.688,4.712,4.643c8.64-0.113,17.283-0.037,26.208-0.037c0.149,1.041,0.4,1.975,0.401,2.908
	c0.012,27.991-0.08,55.981,0.081,83.972c0.024,4.09-1.027,5.488-5.257,5.461c-25.823-0.164-51.649,0.031-77.473-0.115
	C19.229,238.93,0.02,219.41,0.012,193.908c-0.015-49.983-0.018-99.966,0-149.949C0.022,19.623,19.751,0.007,44.184,0.004
	c49.983-0.006,99.967-0.005,149.949,0.003c25.971,0.004,45.029,19.073,45.031,45.04c0.004,49.816,0.008,99.633-0.002,149.449
	c-0.006,24.336-18.889,43.869-43.256,44.564c-8.656,0.248-17.326-0.023-25.989,0.078c-3.066,0.035-4.412-0.789-4.397-4.254
	c0.115-28.656,0.038-57.313,0.035-85.97C165.555,148.442,165.743,147.97,165.981,146.849z"/>
</svg>
