<svg xmlns="http://www.w3.org/2000/svg" width="23.722" height="28.102" viewBox="0 0 23.722 28.102">
  <g id="Fresh_Fruites" data-name="Fresh Fruites" transform="translate(-39.981 0.052)">
    <path id="Path_17386" data-name="Path 17386" d="M349.339,400.144a.547.547,0,1,1,.538-.449A.552.552,0,0,1,349.339,400.144Z" transform="translate(-291.877 -377.229)" fill="#212121" stroke="#212121" stroke-width="0.1"/>
    <path id="Path_17387" data-name="Path 17387" d="M61.861,10.078a7.23,7.23,0,0,0-3.9-2.726,7.773,7.773,0,0,0-3.568.064h0l-.04.009-.106.024c-.086.02-.219.052-.362.089-.187.048-.377.091-.566.126q0-.212-.017-.436A7.189,7.189,0,0,1,55.48,2.613a7.75,7.75,0,0,1,2.262-1.557.547.547,0,0,0-.4-1.018A8.69,8.69,0,0,0,54.749,1.8a8.434,8.434,0,0,0-1.936,2.843A5.643,5.643,0,0,0,51.508,2.5C49.029.022,44.384.793,44.11.841h0a.533.533,0,0,0-.428.366.7.7,0,0,0-.02.078c-.031.177-.668,3.9.936,6.483-2.22,1.065-4.566,3.7-4.566,8.076a13.529,13.529,0,0,0,1.332,5.344,16.571,16.571,0,0,0,3.2,4.773A5.885,5.885,0,0,0,48.523,28a7.7,7.7,0,0,0,2.194-.322,3.886,3.886,0,0,1,2.115-.038l.007,0,.129.037A7.7,7.7,0,0,0,55.162,28a5.73,5.73,0,0,0,3.791-1.875c2.636-2.528,4.7-7.044,4.7-10.28A9.524,9.524,0,0,0,61.861,10.078ZM50.735,3.272A6.121,6.121,0,0,1,52.2,7.249c-.019.246-.03,1.32-.03,1.32L48.022,4.426a.547.547,0,0,0-.773.774l4.177,4.172c-1.428.077-3.9-.032-5.334-1.464-1.722-1.72-1.533-4.931-1.407-6.042,1.112-.126,4.327-.315,6.05,1.406ZM58.2,25.335a4.705,4.705,0,0,1-3.034,1.571,6.683,6.683,0,0,1-1.877-.276q-.082-.025-.164-.047h0a4.981,4.981,0,0,0-2.717.047,6.683,6.683,0,0,1-1.878.276,4.867,4.867,0,0,1-3.184-1.718c-2.363-2.363-4.214-6.468-4.214-9.344,0-4.019,2.191-6.351,4.167-7.19l.028.028a7.737,7.737,0,0,0,5.442,1.805,11.562,11.562,0,0,0,1.947-.147c.437-.1.426-.3.453-.425V9.9a10.757,10.757,0,0,0,.125-1.126.554.554,0,0,0,.1-.008c.256-.044.514-.1.768-.165.1-.025.192-.049.27-.067,2.256.787,4.487,3.324,4.487,7.314a11.5,11.5,0,0,1-.872,4.031.547.547,0,1,0,1.02.4,12.587,12.587,0,0,0,.946-4.427,8.86,8.86,0,0,0-3.689-7.575,5.036,5.036,0,0,1,1.365.142c2.349.608,4.877,3.194,4.877,7.433C62.559,18.769,60.6,23.027,58.2,25.335Z" fill="#212121" stroke="#212121" stroke-width="0.1"/>
  </g>
</svg>
