<svg xmlns="http://www.w3.org/2000/svg" width="19.922" height="30" viewBox="0 0 19.922 30">
  <g id="Frozen" transform="translate(-28 -8)">
    <g id="Group_5725" data-name="Group 5725" transform="translate(-62 -21)">
      <path id="Path_17410" data-name="Path 17410" d="M213.443,100.272a.586.586,0,1,0,0-1.172h0a.586.586,0,0,0,0,1.172Z" transform="translate(-115.424 -64.293)" fill="#212121"/>
      <path id="Path_17411" data-name="Path 17411" d="M280.051,81.972a.586.586,0,0,0,0-1.172h0a.586.586,0,0,0,0,1.172Z" transform="translate(-178.129 -47.066)" fill="#212121"/>
      <path id="Path_17412" data-name="Path 17412" d="M104.75,12.523v-.687a4.105,4.105,0,0,0-.906-2.564,4.149,4.149,0,0,0-1.586-1.206,2.912,2.912,0,0,0,.148-.917,2.954,2.954,0,0,0-1.2-2.359,3.3,3.3,0,0,0-.247-2.263,5,5,0,0,0-3.047-2.5.586.586,0,0,0-.732.41c-.387,1.443-1.867,1.93-3.434,2.447a9.6,9.6,0,0,0-2.806,1.264,3.525,3.525,0,0,0-1.425,3,2.913,2.913,0,0,0,.148.917,4.148,4.148,0,0,0-1.586,1.206,4.106,4.106,0,0,0-.906,2.564v.687A1.761,1.761,0,0,0,86,14.18v1.172a1.761,1.761,0,0,0,1.221,1.674l1.126,10.836A2.324,2.324,0,0,0,90.559,30h10.8a2.324,2.324,0,0,0,2.212-2.139L104.7,17.025a1.761,1.761,0,0,0,1.221-1.674V14.18A1.761,1.761,0,0,0,104.75,12.523ZM94.114,3.994c1.53-.5,3.243-1.068,3.981-2.653A3.754,3.754,0,0,1,99.9,3.031a2.12,2.12,0,0,1,.062,1.79.586.586,0,0,0,.282.75,1.775,1.775,0,0,1,.986,1.578,1.74,1.74,0,0,1-.15.706,2.566,2.566,0,0,0-1.405.78,1.2,1.2,0,0,1-1.949,0,2.34,2.34,0,0,0-3.537,0,1.2,1.2,0,0,1-1.949,0,2.567,2.567,0,0,0-1.405-.78,1.741,1.741,0,0,1-.15-.706c0-1.928,1.3-2.455,3.426-3.155ZM90.541,9a1.353,1.353,0,0,1,.908.5,2.34,2.34,0,0,0,3.537,0,1.2,1.2,0,0,1,1.949,0,2.34,2.34,0,0,0,3.537,0,1.353,1.353,0,0,1,.908-.5,2.958,2.958,0,0,1,2.2,2.836v.586H88.344v-.586A2.958,2.958,0,0,1,90.541,9ZM87.172,14.18a.587.587,0,0,1,.586-.586h16.406a.587.587,0,0,1,.586.586v1.172a.587.587,0,0,1-.585.586H87.757a.587.587,0,0,1-.585-.586V14.18Zm15.238,13.56a1.16,1.16,0,0,1-1.046,1.088h-10.8a1.16,1.16,0,0,1-1.046-1.088l-1.1-10.63h15.106Z" transform="translate(4 29)" fill="#212121"/>
    </g>
  </g>
</svg>
