<?xml version="1.0" encoding="utf-8"?>
<!-- Generator: Adobe Illustrator 16.0.0, SVG Export Plug-In . SVG Version: 6.00 Build 0)  -->
<!DOCTYPE svg PUBLIC "-//W3C//DTD SVG 1.1//EN" "http://www.w3.org/Graphics/SVG/1.1/DTD/svg11.dtd">
<svg version="1.1" id="Layer_1" xmlns="http://www.w3.org/2000/svg" xmlns:xlink="http://www.w3.org/1999/xlink" x="0px" y="0px"
	 width="238.789px" height="239.729px" viewBox="0 0 238.789 239.729" enable-background="new 0 0 238.789 239.729"
	 xml:space="preserve">
<path fill-rule="evenodd" clip-rule="evenodd" d="M119.044,1.175c16.99,0,33.996-0.473,50.964,0.141
	c15.148,0.547,29.575,4.308,42.161,13.476c13.083,9.53,20.702,22.649,23.384,38.191c2.053,11.896,2.906,24.11,3.071,36.2
	c0.343,25.146,0.108,50.308-0.342,75.455c-0.298,16.634-2.955,32.813-12.734,46.986c-10.06,14.582-24.342,22.765-41.402,25.288
	c-13.27,1.963-26.82,2.639-40.254,2.74c-25.474,0.193-50.974,0.073-76.425-0.895c-18.736-0.711-35.954-6.284-49.301-20.678
	C7.353,206.42,1.717,192.296,1.211,176.918c-1.112-33.772-1.419-67.591-1.08-101.381c0.107-10.639,2.022-21.674,5.364-31.783
	C13.845,18.491,33.071,5.292,58.696,2.56C78.667,0.431,98.902,0.762,119.02,0C119.028,0.392,119.036,0.783,119.044,1.175z
	 M218.686,108.916c-0.78-12.793-1.12-31.979-3.364-50.94c-1.835-15.501-11.094-27.157-26.219-31.664
	c-10.68-3.182-22.171-4.363-33.373-4.899c-16.46-0.788-32.986-0.335-49.481-0.159c-12.643,0.135-25.29,0.473-37.919,1.048
	C38.525,23.66,22.906,40.371,22.005,64.765c-1.364,36.914-0.796,73.924-0.11,110.875c0.26,13.992,6.558,26.051,18.68,34.234
	c9.194,6.205,19.799,8.189,30.437,8.327c32.126,0.415,64.265,0.403,96.39-0.059c7.513-0.108,15.389-1.605,22.409-4.275
	c18.127-6.895,25.924-21.803,27.022-40.166C217.997,154.266,218.005,134.758,218.686,108.916z"/>
<path fill-rule="evenodd" clip-rule="evenodd" d="M58.011,120.128c-0.007-34.509,27.011-61.38,61.558-61.223
	c33.646,0.152,60.923,27.219,60.919,60.448c-0.004,34.958-26.763,61.987-61.378,61.999
	C85.033,181.362,58.018,154.291,58.011,120.128z M119.133,160.199c22.747,0.036,40.264-17.363,40.319-40.051
	c0.055-22.284-17.594-39.738-39.674-40.364C99.484,79.209,78.926,96.04,78.687,120.01
	C78.468,142.016,96.877,160.164,119.133,160.199z"/>
<path fill-rule="evenodd" clip-rule="evenodd" d="M183.427,42.111c7.633,0.042,13.822,6.233,13.914,13.918
	c0.091,7.605-6.172,13.845-13.948,13.897c-7.851,0.053-14.083-5.99-14.119-13.69C169.236,48.229,175.41,42.067,183.427,42.111z"/>
</svg>
