<?xml version="1.0" encoding="utf-8"?>
<!-- Generator: Adobe Illustrator 16.0.0, SVG Export Plug-In . SVG Version: 6.00 Build 0)  -->
<!DOCTYPE svg PUBLIC "-//W3C//DTD SVG 1.1//EN" "http://www.w3.org/Graphics/SVG/1.1/DTD/svg11.dtd">
<svg version="1.1" id="Layer_1" xmlns="http://www.w3.org/2000/svg" xmlns:xlink="http://www.w3.org/1999/xlink" x="0px" y="0px"
	 width="239.169px" height="239.206px" viewBox="0 0 239.169 239.206" enable-background="new 0 0 239.169 239.206"
	 xml:space="preserve">
<g>
	<path fill-rule="evenodd" clip-rule="evenodd" d="M119.719,0.01c24.999,0.002,49.997-0.018,74.995,0.007
		c25.266,0.025,44.447,19.303,44.451,44.638c0.004,49.83,0.006,99.661,0,149.491c-0.004,24.945-19.121,44.803-43.918,44.904
		c-50.33,0.206-100.661,0.209-150.991,0c-25.205-0.105-44.236-19.811-44.243-45.112c-0.015-49.997-0.019-99.994,0-149.991
		c0.01-24.151,19.666-43.903,43.71-43.932C69.055-0.015,94.387,0.009,119.719,0.01z M131.021,104.686
		c-0.571-0.382-1.143-0.765-1.715-1.147c0-1.922-0.175-3.864,0.035-5.763c0.512-4.626-1.061-6.644-6.07-6.442
		c-8.486,0.342-17.006,0.347-25.491-0.002c-5.022-0.206-6.081,2.002-5.495,6.306c0.313,2.298,0.388,4.644,0.378,6.967
		c-0.125,30.325-0.206,60.65-0.526,90.973c-0.043,4.044,1.21,5.176,5.078,5.071c8.493-0.228,16.997-0.061,25.497-0.07
		c6.578-0.007,6.59-0.017,6.592-6.561c0.004-19.166-0.047-38.331,0.016-57.496c0.031-9.398,8.121-17.646,17.738-18.31
		c9.883-0.683,16.701,4.937,18.18,15.204c0.521,3.61,0.83,7.282,0.85,10.928c0.086,16.998,0.167,34-0.055,50.995
		c-0.056,4.221,1.293,5.447,5.395,5.32c8.658-0.269,17.337-0.284,25.994,0.006c4.266,0.144,5.795-0.976,5.736-5.528
		c-0.248-18.996,0.121-38.001-0.229-56.993c-0.121-6.583-1.082-13.286-2.688-19.677c-3.771-15.003-13.387-24.917-28.57-28.174
		c-14.392-3.087-27.919-1.069-38.478,10.598C132.237,101.946,131.734,103.411,131.021,104.686z M72.472,200.539
		c0.24-1.426,0.439-2.063,0.44-2.699c0.021-33.959-0.01-67.918,0.084-101.876c0.01-3.581-1.485-4.62-4.793-4.574
		c-8.488,0.119-16.992,0.32-25.464-0.068c-5.178-0.237-6.467,1.649-6.434,6.594c0.2,29.629,0.098,59.261,0.1,88.892
		c0,3.495-0.218,7.016,0.147,10.474c0.123,1.167,1.72,3.098,2.674,3.117C50.188,200.62,61.156,200.539,72.472,200.539z
		 M55.047,39.391c-12.123-0.033-20.975,8.084-20.956,19.215c0.019,10.631,8.812,18.954,20.169,19.09
		c11.877,0.142,21.373-8.335,21.384-19.09C75.656,47.639,66.85,39.424,55.047,39.391z"/>
	<path fill-rule="evenodd" clip-rule="evenodd" fill="#FFFFFF" d="M131.021,104.686c0.714-1.274,1.217-2.739,2.173-3.795
		c10.559-11.667,24.086-13.685,38.478-10.598c15.184,3.257,24.799,13.17,28.57,28.174c1.605,6.391,2.566,13.094,2.688,19.677
		c0.35,18.992-0.02,37.997,0.229,56.993c0.059,4.553-1.471,5.672-5.736,5.528c-8.657-0.29-17.336-0.274-25.994-0.006
		c-4.102,0.127-5.45-1.1-5.395-5.32c0.222-16.995,0.141-33.997,0.055-50.995c-0.02-3.646-0.329-7.317-0.85-10.928
		c-1.479-10.268-8.297-15.887-18.18-15.204c-9.617,0.664-17.707,8.911-17.738,18.31c-0.063,19.165-0.012,38.33-0.016,57.496
		c-0.002,6.544-0.014,6.554-6.592,6.561c-8.5,0.01-17.004-0.157-25.497,0.07c-3.868,0.104-5.121-1.027-5.078-5.071
		c0.32-30.323,0.402-60.648,0.526-90.973c0.009-2.324-0.065-4.669-0.378-6.967c-0.585-4.303,0.473-6.512,5.495-6.306
		c8.485,0.349,17.005,0.345,25.491,0.002c5.01-0.202,6.582,1.816,6.07,6.442c-0.21,1.899-0.035,3.841-0.035,5.763
		C129.878,103.921,130.449,104.303,131.021,104.686z"/>
	<path fill-rule="evenodd" clip-rule="evenodd" fill="#FFFFFF" d="M72.472,200.539c-11.316,0-22.284,0.081-33.245-0.141
		c-0.955-0.02-2.551-1.95-2.674-3.117c-0.365-3.458-0.147-6.979-0.147-10.474c-0.001-29.631,0.1-59.263-0.1-88.892
		c-0.034-4.945,1.256-6.831,6.434-6.594c8.472,0.388,16.976,0.187,25.464,0.068c3.308-0.046,4.803,0.993,4.793,4.574
		c-0.094,33.958-0.063,67.917-0.084,101.876C72.912,198.477,72.712,199.113,72.472,200.539z"/>
	<path fill-rule="evenodd" clip-rule="evenodd" fill="#FFFFFF" d="M55.047,39.391c11.803,0.033,20.609,8.248,20.598,19.214
		c-0.011,10.755-9.507,19.232-21.384,19.09c-11.357-0.136-20.151-8.458-20.169-19.09C34.072,47.475,42.924,39.358,55.047,39.391z"/>
</g>
</svg>
