<svg xmlns="http://www.w3.org/2000/svg" width="25.909" height="26.3" viewBox="0 0 25.909 26.3">
  <g id="Sauces_Jams" data-name="Sauces &amp; Jams" transform="translate(0.192 0.15)">
    <g id="_036---Condiments" data-name="036---Condiments" transform="translate(0 0)">
      <path id="Shape" d="M3.9,9.1v.867a1.3,1.3,0,0,0-1.3,1.3V24.7A1.3,1.3,0,0,0,3.9,26h6.5a1.3,1.3,0,0,0,1.3-1.3V11.267a1.3,1.3,0,0,0-1.3-1.3v-1.3a1.733,1.733,0,0,0-1.366-1.69L8.293,3.016A.86.86,0,0,0,8.986,2L8.726.7A.87.87,0,0,0,7.878,0H6.422a.869.869,0,0,0-.85.7l-.12.6H3.9a3.9,3.9,0,1,0,0,7.8Zm6.933,12.567H3.467V14.3h7.367ZM10.4,25.133H3.9a.433.433,0,0,1-.433-.433V22.533h7.367V24.7A.433.433,0,0,1,10.4,25.133Zm.433-13.867v2.167H3.467V11.267a.433.433,0,0,1,.433-.433h6.5A.433.433,0,0,1,10.833,11.267Zm-1.3-2.6v1.3H4.767v-1.3A.867.867,0,0,1,5.633,7.8H8.667A.867.867,0,0,1,9.533,8.667ZM6.886,3.033h.529l.732,3.9H6.158ZM6.933.867h.946l.26,1.3H6.162l.26-1.3ZM3.9,2.167H5.3a.856.856,0,0,0,.71.849L5.266,6.977a1.733,1.733,0,0,0-1.3,1.257H3.9a3.033,3.033,0,1,1,0-6.067Z" transform="translate(0 0)" fill="#212121" stroke="#212121" stroke-width="0.3"/>
      <path id="Shape-2" data-name="Shape" d="M41.4,8.094l.279-.7A4.512,4.512,0,0,0,42,5.71V3.467A3.471,3.471,0,0,0,38.533,0H32.467A3.471,3.471,0,0,0,29,3.467V5.71a4.507,4.507,0,0,0,.325,1.685l.28.7a3.647,3.647,0,0,1,.263,1.363v1.708a3.692,3.692,0,0,1-.388,1.641A4.564,4.564,0,0,0,29,14.835v1.632a5.875,5.875,0,0,0,2.19,4.219,1.291,1.291,0,0,0-.457.981V24.7a1.3,1.3,0,0,0,1.3,1.3h6.933a1.3,1.3,0,0,0,1.3-1.3V21.667a1.291,1.291,0,0,0-.457-.981A5.875,5.875,0,0,0,42,16.467V14.835a4.567,4.567,0,0,0-.477-2.029,3.689,3.689,0,0,1-.39-1.641V9.457A3.651,3.651,0,0,1,41.4,8.094ZM39.4,23.4H37.172a1.725,1.725,0,0,0-3.344,0H31.6V21.667a.433.433,0,0,1,.433-.433h6.933a.433.433,0,0,1,.433.433Zm-.433,1.733H32.033A.433.433,0,0,1,31.6,24.7v-.433h2.6a.433.433,0,0,0,.433-.433.867.867,0,1,1,1.733,0,.433.433,0,0,0,.433.433h2.6V24.7A.433.433,0,0,1,38.967,25.133Zm1.777-11.939a3.689,3.689,0,0,1,.39,1.641v1.632c0,2.053-1.848,3.559-2.306,3.9H32.172c-.458-.341-2.306-1.847-2.306-3.9V14.835a3.692,3.692,0,0,1,.388-1.641,4.564,4.564,0,0,0,.479-2.029V9.457a4.507,4.507,0,0,0-.325-1.685l-.279-.7a3.647,3.647,0,0,1-.263-1.363V3.467a2.6,2.6,0,0,1,2.6-2.6h6.067a2.6,2.6,0,0,1,2.6,2.6V5.71a3.651,3.651,0,0,1-.263,1.363l-.279.7a4.512,4.512,0,0,0-.325,1.685v1.708a4.567,4.567,0,0,0,.479,2.029Z" transform="translate(-16.433 0)" fill="#212121" stroke="#212121" stroke-width="0.3"/>
      <path id="Shape-3" data-name="Shape" d="M41.821,10.167h-.545l.13-.9a.863.863,0,0,0-.582-.946,9.166,9.166,0,0,0-4.8,0,.863.863,0,0,0-.582.946l.13.9h-.547a.867.867,0,0,0-.857,1l1.17,7.8a.872.872,0,0,0,.857.737h4.454a.872.872,0,0,0,.857-.737l1.17-7.8a.867.867,0,0,0-.857-1Zm-1.17,8.667H36.2l-1.17-7.8h1.044a.433.433,0,0,0,.429-.494l-.206-1.4a8.549,8.549,0,0,1,2.129-.277,8.456,8.456,0,0,1,2.123.276l-.2,1.4a.433.433,0,0,0,.429.494h1.044Z" transform="translate(-19.358 -4.533)" fill="#212121" stroke="#212121" stroke-width="0.3"/>
    </g>
  </g>
</svg>
