<?xml version="1.0" encoding="utf-8"?>
<!-- Generator: Adobe Illustrator 23.0.5, SVG Export Plug-In . SVG Version: 6.00 Build 0)  -->
<svg version="1.1" id="Layer_1" xmlns="http://www.w3.org/2000/svg" xmlns:xlink="http://www.w3.org/1999/xlink" x="0px" y="0px"
	 viewBox="0 0 237.8 237.8" style="enable-background:new 0 0 237.8 237.8;" xml:space="preserve">
<style type="text/css">
	.st0{fill-rule:evenodd;clip-rule:evenodd;fill:#ECBA30;}
</style>
<path class="st0" d="M159.4,172.9c-4.2,2.8-8.2,5.5-12.2,8c-53.9,33-126.7,4.2-143.5-56.7C-12.2,66.6,24.6,9.9,83.4,1.1
	C131.8-6.3,181.6,25,192.6,78c5.9,28.3-0.3,54.2-17.2,77.5c-2.4,3.3-2.2,5,0.6,7.8c19.3,19.1,38.4,38.4,57.6,57.5
	c3.5,3.5,5.3,7.4,3,12.1c-1.9,3.9-5.5,5.7-9.6,4.6c-2.7-0.7-5.4-2.6-7.4-4.6c-18.9-18.7-37.8-37.6-56.6-56.5
	C162,175.3,160.8,174.2,159.4,172.9z M97.5,18.5c-43.3-0.1-78.8,35.1-78.8,78.1c0,44.3,34.4,79.2,78.4,79.4
	c43.4,0.2,79.1-35.3,79.1-78.5C176.1,54,140.8,18.6,97.5,18.5z"/>
</svg>
