<?xml version="1.0" encoding="utf-8"?>
<!-- Generator: Adobe Illustrator 16.0.0, SVG Export Plug-In . SVG Version: 6.00 Build 0)  -->
<!DOCTYPE svg PUBLIC "-//W3C//DTD SVG 1.1//EN" "http://www.w3.org/Graphics/SVG/1.1/DTD/svg11.dtd">
<svg version="1.1" id="Layer_1" xmlns="http://www.w3.org/2000/svg" xmlns:xlink="http://www.w3.org/1999/xlink" x="0px" y="0px"
	 width="240.601px" height="199.548px" viewBox="0 0 240.601 199.548" enable-background="new 0 0 240.601 199.548"
	 xml:space="preserve">
<path fill-rule="evenodd" clip-rule="evenodd" d="M0,178.749c25.938,0.693,49.199-5.6,70.973-22.342
	c-22.457-2.953-38.13-13.084-46.18-34.076c6.774-0.311,12.845-0.588,18.917-0.865c0.183-0.588,0.366-1.176,0.549-1.762
	C21.4,111.659,8.142,96.387,6.561,71.573c6.922,1.914,13.197,3.648,19.473,5.383c0.402-0.477,0.803-0.955,1.205-1.432
	c-8.883-8.416-16.35-17.611-19.019-29.783C5.512,33.389,7.074,21.792,13.349,9.694c27.748,31.753,61.754,49.552,103.45,52.339
	c0-4.429-0.001-8.18,0-11.93c0.011-25.392,17.479-45.684,42.532-49.464c15.814-2.386,29.506,1.926,41.448,12.536
	c1.526,1.356,4.642,2.201,6.542,1.645c9.01-2.635,17.854-5.837,26.772-8.844c-2.784,9.804-9.801,17.076-19.146,24.289
	c9.601,1.184,16.857-3.454,24.646-4.758c0.336,0.42,0.671,0.84,1.007,1.26c-6.005,6.071-11.718,12.473-18.127,18.081
	c-3.618,3.166-5.491,5.852-5.528,11.092c-0.26,36.734-13.004,68.881-36.896,96.697c-21.293,24.789-48.498,39.188-80.371,44.629
	c-32.455,5.543-63.623,1.09-92.926-14.445C4.434,181.592,2.248,180.112,0,178.749z"/>
</svg>
