<svg xmlns="http://www.w3.org/2000/svg" width="29.38" height="25.347" viewBox="0 0 29.38 25.347">
  <path id="ic_shopping_basket_24px" d="M22.648,11.342,16.8,2.581A1.326,1.326,0,0,0,15.69,2.02a1.305,1.305,0,0,0-1.108.574L8.732,11.342h-6.4A1.339,1.339,0,0,0,1,12.677a1.125,1.125,0,0,0,.053.361l3.392,12.38a2.656,2.656,0,0,0,2.564,1.95H24.371a2.684,2.684,0,0,0,2.577-1.95l3.392-12.38.04-.361a1.339,1.339,0,0,0-1.335-1.335Zm-10.964,0L15.69,5.466,19.7,11.342ZM15.69,22.026a2.671,2.671,0,1,1,2.671-2.671A2.679,2.679,0,0,1,15.69,22.026Z" transform="translate(-1 -2.02)" fill="#ffb60c"/>
</svg>
