<svg id="journey-icon" xmlns="http://www.w3.org/2000/svg" width="41.11" height="27.897" viewBox="0 0 41.11 27.897">
  <path id="Path_471" data-name="Path 471" d="M9.653,6.891c-.453-.8-.878-1.564-1.31-2.321A2.941,2.941,0,0,1,9.264.42a2.881,2.881,0,0,1,4.072,1.191c.9,1.511,1.734,3.057,2.631,4.568a1.454,1.454,0,0,0,.73.621,13.068,13.068,0,0,1,9.724,11.118.744.744,0,0,0,.521.481c1.144.045,2.291.022,3.523.022.015-.3.039-.552.04-.809,0-2.59-.015-5.18.014-7.77a2.183,2.183,0,0,0-.6-1.719,17.9,17.9,0,0,1-1.184-1.456c-.28.208-.517.408-.777.571a1,1,0,0,1-1.432-.233.874.874,0,0,1,.111-1.31q1.552-1.338,3.187-2.579a.926.926,0,0,1,1.368.206.982.982,0,0,1-.1,1.393c-.218.221-.466.412-.688.606a2.351,2.351,0,0,0,2.5,1.491c2.658-.114,5.325-.037,7.989-.034,2.8,0,4.247,1.443,4.248,4.227q0,4.4,0,8.8c0,.24,0,.48,0,.715-.638.234-.955.107-1.173-.545a6.7,6.7,0,0,0-12.786.127c-.149.461-.381.531-.789.527-1.564-.015-3.127,0-4.691-.009-1.043,0-1.334-.292-1.394-1.34A10.912,10.912,0,0,0,15.627,8.841,10.629,10.629,0,0,0,6.94,10.69c-.139.1-.269.212-.413.3a1.066,1.066,0,0,1-1.557-.211,1.02,1.02,0,0,1,.254-1.54c1.2-.743,2.449-1.4,3.684-2.075A5.832,5.832,0,0,1,9.653,6.891Z" transform="translate(-4.035 0)" fill="#585757" fill-rule="evenodd"/>
  <path id="Path_472" data-name="Path 472" d="M16.5,74.085c1.154.861,1.464,1.815.942,2.728s-1.491,1.136-2.832.59c.478,1.172.505,2.227-.709,2.9-.846.466-1.628.174-2.637-.889-.248,1.4-.848,2.056-1.9,2.076s-1.649-.6-1.944-1.99a4.317,4.317,0,0,1-1.3.872,2.481,2.481,0,0,1-1.579-.236c-.829-.436-.965-1.391-.542-2.544a4.64,4.64,0,0,1-1.638.054,2.37,2.37,0,0,1-1.206-1.054c-.459-.851-.081-1.691,1-2.49-1.322-.165-2.248-.72-2.148-2.141C.078,70.962.729,70.47,2,70.249a4.44,4.44,0,0,1-.874-1.314,2.417,2.417,0,0,1,.231-1.577c.464-.846,1.454-.975,2.73-.435-.58-1.282-.5-2.357.832-2.964.869-.395,1.618-.064,2.476.974.337-1.559.9-2.145,2.018-2.112,1.025.03,1.612.682,1.826,1.914a9.5,9.5,0,0,1,1.7-.871,1.691,1.691,0,0,1,1.165.275c.875.519,1.031,1.457.483,2.747,1.227-.517,2.288-.493,2.93.8.426.855.134,1.612-.869,2.469a4.353,4.353,0,0,1,1.414.685,2.4,2.4,0,0,1,.59,1.485C18.661,73.309,17.865,73.91,16.5,74.085ZM9.374,76.773a4.623,4.623,0,1,0-4.651-4.559A4.636,4.636,0,0,0,9.374,76.773Z" transform="translate(-0.001 -53.608)" fill="#585757" fill-rule="evenodd"/>
  <path id="Path_473" data-name="Path 473" d="M200.283,117.925c.4,1.384.264,1.628-1.186,2.252a.54.54,0,0,0-.249.306c-.418,1.285-.9,1.531-2.231,1.109-1.069,1.071-1.711,1.077-2.664.022-1.558.36-2.041.079-2.351-1.365-1.507-.377-1.774-.84-1.349-2.341-1.092-.937-1.1-1.691-.02-2.632-.345-1.569-.045-2.1,1.347-2.362.313-1.439.95-1.813,2.28-1.339,1.226-1.1,1.757-1.106,2.716-.028,1.551-.366,2.021-.1,2.346,1.348,1.439.348,1.8.963,1.358,2.286C201.351,116.433,201.352,116.887,200.283,117.925Zm-2.324-1.32a2.73,2.73,0,1,0-2.772,2.7A2.709,2.709,0,0,0,197.959,116.605Z" transform="translate(-161.649 -94.504)" fill="#585757" fill-rule="evenodd"/>
</svg>
