<?xml version="1.0" encoding="utf-8"?>
<!-- Generator: Adobe Illustrator 16.0.0, SVG Export Plug-In . SVG Version: 6.00 Build 0)  -->
<!DOCTYPE svg PUBLIC "-//W3C//DTD SVG 1.1//EN" "http://www.w3.org/Graphics/SVG/1.1/DTD/svg11.dtd">
<svg version="1.1" id="journey-icon" xmlns="http://www.w3.org/2000/svg" xmlns:xlink="http://www.w3.org/1999/xlink" x="0px"
	 y="0px" width="41.109px" height="27.896px" viewBox="0 0 41.109 27.896" enable-background="new 0 0 41.109 27.896"
	 xml:space="preserve">
<path id="Path_471" fill="#FEBC12" d="M5.618,6.891C5.165,6.091,4.74,5.327,4.308,4.57C3.406,3.22,3.768,1.394,5.118,0.49
	c0.036-0.024,0.073-0.048,0.11-0.07c1.362-0.822,3.134-0.385,3.956,0.978c0.041,0.069,0.08,0.141,0.116,0.213
	c0.9,1.512,1.734,3.058,2.631,4.568c0.166,0.283,0.424,0.503,0.73,0.621c5.226,1.343,9.089,5.76,9.724,11.118
	c0.081,0.238,0.277,0.419,0.521,0.48c1.144,0.045,2.291,0.022,3.522,0.022c0.015-0.3,0.039-0.552,0.04-0.809
	c0-2.591-0.015-5.181,0.014-7.771c0.061-0.633-0.159-1.261-0.6-1.719c-0.42-0.465-0.815-0.95-1.184-1.456
	c-0.28,0.208-0.518,0.408-0.777,0.571c-0.439,0.334-1.067,0.249-1.401-0.19c-0.011-0.015-0.021-0.028-0.03-0.043
	c-0.335-0.348-0.325-0.901,0.022-1.236c0.028-0.026,0.058-0.051,0.088-0.074c1.035-0.892,2.098-1.751,3.188-2.578
	c0.393-0.327,0.977-0.274,1.304,0.119c0.023,0.027,0.045,0.057,0.064,0.087c0.357,0.407,0.316,1.028-0.092,1.386
	c-0.003,0.002-0.006,0.005-0.009,0.007c-0.218,0.221-0.466,0.412-0.688,0.606c0.388,1.015,1.422,1.631,2.5,1.49
	c2.657-0.113,5.324-0.037,7.988-0.034c2.801,0,4.247,1.443,4.248,4.228c0,2.934,0,5.866,0,8.8c0,0.24,0,0.48,0,0.715
	c-0.638,0.234-0.955,0.107-1.173-0.545c-1.142-3.52-4.92-5.447-8.44-4.306c-2.087,0.677-3.71,2.333-4.346,4.433
	c-0.148,0.461-0.381,0.531-0.789,0.527c-1.563-0.015-3.127,0-4.69-0.009c-1.043,0-1.334-0.292-1.395-1.34
	c-0.112-5.076-3.711-9.402-8.681-10.439c-3.026-0.681-6.2-0.006-8.687,1.849c-0.14,0.101-0.27,0.212-0.413,0.301
	c-0.453,0.376-1.125,0.314-1.502-0.138c-0.02-0.024-0.038-0.049-0.056-0.073c-0.366-0.429-0.315-1.072,0.112-1.438
	C1.091,9.303,1.139,9.269,1.189,9.24c1.2-0.743,2.449-1.4,3.685-2.075C5.115,7.056,5.364,6.965,5.618,6.891z"/>
<path id="Path_472" fill="#FEBC12" d="M16.499,20.477c1.153,0.861,1.464,1.815,0.941,2.729c-0.521,0.913-1.49,1.136-2.832,0.59
	c0.479,1.172,0.506,2.227-0.709,2.899c-0.846,0.467-1.628,0.175-2.637-0.889c-0.248,1.4-0.848,2.056-1.899,2.076
	c-1.053,0.02-1.649-0.6-1.944-1.99c-0.377,0.367-0.817,0.663-1.3,0.872c-0.538,0.098-1.094,0.015-1.579-0.236
	c-0.829-0.436-0.965-1.391-0.542-2.544c-0.539,0.115-1.094,0.134-1.639,0.055c-0.512-0.201-0.938-0.573-1.205-1.055
	c-0.46-0.851-0.081-1.69,1-2.489c-1.322-0.165-2.248-0.721-2.148-2.142c0.071-0.999,0.722-1.491,1.993-1.712
	c-0.367-0.382-0.664-0.827-0.874-1.313c-0.104-0.537-0.022-1.093,0.23-1.577c0.464-0.847,1.454-0.976,2.73-0.436
	c-0.58-1.281-0.5-2.356,0.832-2.964c0.869-0.395,1.618-0.063,2.476,0.975c0.337-1.56,0.9-2.146,2.019-2.112
	c1.024,0.03,1.611,0.682,1.826,1.914c0.535-0.347,1.105-0.639,1.699-0.871c0.409-0.054,0.823,0.044,1.165,0.275
	c0.875,0.519,1.031,1.456,0.483,2.746c1.227-0.517,2.288-0.492,2.93,0.801c0.426,0.854,0.134,1.611-0.869,2.469
	c0.51,0.141,0.988,0.373,1.414,0.685c0.36,0.413,0.569,0.938,0.59,1.485C18.66,19.701,17.865,20.302,16.499,20.477z M9.373,23.165
	c2.553-0.016,4.61-2.099,4.594-4.651c-0.016-2.554-2.098-4.61-4.65-4.595c-2.554,0.016-4.61,2.099-4.595,4.651
	c0,0.012,0,0.023,0,0.035C4.764,21.142,6.836,23.174,9.373,23.165z"/>
<path id="Path_473" fill="#FEBC12" d="M38.634,23.421c0.4,1.384,0.264,1.628-1.186,2.252c-0.119,0.066-0.208,0.176-0.249,0.306
	c-0.418,1.285-0.9,1.531-2.231,1.109c-1.069,1.071-1.711,1.077-2.664,0.021c-1.558,0.36-2.041,0.079-2.351-1.364
	c-1.507-0.377-1.774-0.84-1.35-2.342c-1.092-0.937-1.1-1.69-0.02-2.632c-0.345-1.568-0.045-2.1,1.347-2.361
	c0.313-1.439,0.95-1.813,2.28-1.34c1.226-1.1,1.757-1.105,2.716-0.027c1.551-0.366,2.021-0.101,2.346,1.348
	c1.439,0.349,1.801,0.963,1.358,2.286C39.702,21.929,39.703,22.383,38.634,23.421z M36.31,22.101c0.017-1.508-1.192-2.743-2.7-2.76
	c-1.508-0.016-2.743,1.193-2.759,2.7c-0.017,1.503,1.185,2.736,2.688,2.76c1.495,0.035,2.736-1.149,2.771-2.646
	C36.31,22.138,36.31,22.119,36.31,22.101z"/>
</svg>
