<?xml version="1.0" encoding="utf-8"?>
<!-- Generator: Adobe Illustrator 16.0.0, SVG Export Plug-In . SVG Version: 6.00 Build 0)  -->
<!DOCTYPE svg PUBLIC "-//W3C//DTD SVG 1.1//EN" "http://www.w3.org/Graphics/SVG/1.1/DTD/svg11.dtd">
<svg version="1.1" id="Layer_1" xmlns="http://www.w3.org/2000/svg" xmlns:xlink="http://www.w3.org/1999/xlink" x="0px" y="0px"
	 width="31.826px" height="33.246px" viewBox="0 0 31.826 33.246" enable-background="new 0 0 31.826 33.246" xml:space="preserve">
<g id="logo-icon" transform="translate(0)">
	<path id="Path_464" fill="#FEBC12" d="M15.88,33.244c-1.725,0.016-3.438-0.277-5.06-0.863c-2.345-0.838-4.459-2.217-6.171-4.025
		c-2.161-2.27-3.645-5.098-4.282-8.165c-0.196-0.948-0.313-1.909-0.353-2.877c-0.026-0.697-0.014-1.395,0.035-2.09
		c0.052-0.74,0.158-1.476,0.318-2.2c0.209-1.009,0.514-1.996,0.909-2.947c0.688-1.649,1.628-3.181,2.787-4.54
		c1.162-1.357,2.541-2.512,4.08-3.419C9.479,1.33,10.928,0.751,12.439,0.4c1.36-0.32,2.757-0.449,4.153-0.384
		c3.125,0.146,6.132,1.237,8.623,3.129c1.847,1.391,3.375,3.159,4.485,5.187c0.502,0.892,0.918,1.83,1.244,2.8
		c0.283,0.861,0.5,1.742,0.649,2.635c0.518,3.098,0.183,6.278-0.971,9.199c-0.749,1.898-1.843,3.643-3.224,5.146
		c-1.328,1.447-2.909,2.642-4.666,3.523c-1.1,0.554-2.264,0.971-3.465,1.24C18.157,33.13,17.021,33.254,15.88,33.244z M24.493,7.787
		c0.011-0.019,0.023-0.031,0.023-0.044c0.003-0.023,0.003-0.047,0-0.07c-0.099-1.063-0.713-2.009-1.644-2.532
		c-0.79-0.42-1.667-0.648-2.562-0.666c-1.022-0.028-2.045,0.052-3.052,0.237c-1.354,0.221-2.665,0.658-3.882,1.293
		c-1.442,0.738-2.786,1.654-4,2.727c-0.534,0.448-1.042,0.927-1.52,1.434c-0.137,0.156-0.328,0.253-0.535,0.27
		c-0.649,0.071-1.275,0.281-1.836,0.614c-0.732,0.408-1.218,1.149-1.3,1.984c-0.045,0.409-0.045,0.821,0,1.23
		c0.076,0.721,0.35,1.407,0.791,1.982c0.441,0.554,0.999,1.003,1.634,1.317c0.694,0.349,1.435,0.595,2.2,0.728
		c0.279,0.053,0.31,0.017,0.233-0.271c-0.162-0.6-0.382-1.178-0.586-1.762c-0.057-0.191-0.234-0.321-0.434-0.319
		c-0.085-0.008-0.17-0.005-0.255,0.008c-0.684,0.097-1.363-0.205-1.748-0.778c-0.141-0.175-0.168-0.415-0.07-0.617
		c0.166-0.351,0.506-0.587,0.893-0.62c0.271-0.017,0.543-0.02,0.814-0.008c0.077,0.006,0.151-0.032,0.19-0.1
		c0.138-0.2,0.3-0.379,0.428-0.579C8.373,13.106,8.524,13.017,8.691,13c0.061-0.01,0.123-0.019,0.184-0.025
		c0.296-0.041,0.593,0.063,0.8,0.278c0.18,0.204,0.309,0.447,0.377,0.71c0.084,0.271,0.032,0.565-0.142,0.79
		c-0.026,0.038-0.054,0.076-0.081,0.113c-0.257,0.34-0.553,0.65-0.881,0.923c-0.105,0.082-0.165,0.209-0.16,0.342
		c0,0.093,0,0.186,0.015,0.278c0.048,0.369,0.131,0.732,0.247,1.084c0.073,0.27,0.162,0.535,0.266,0.795
		c0.035,0.008,0.073,0,0.1-0.024c0.544-0.358,1.067-0.746,1.595-1.128c0.076-0.052,0.112-0.146,0.089-0.236
		c-0.045-0.447-0.087-0.895-0.133-1.342c-0.064-0.616-0.16-1.228-0.282-1.836c-0.071-0.354-0.284-0.664-0.589-0.856
		c-0.233-0.167-0.493-0.295-0.768-0.376c-0.465-0.146-0.849-0.476-1.064-0.912c-0.17-0.255-0.161-0.59,0.023-0.835
		c0.303-0.432,0.776-0.713,1.3-0.772c0.373-0.043,0.749,0.049,1.06,0.26c0.27,0.191,0.63,0.191,0.9,0
		c0.261-0.171,0.576-0.243,0.885-0.2c0.33,0.018,0.609,0.249,0.688,0.569c0.023,0.074,0.042,0.149,0.058,0.225
		c0.133,0.519-0.063,1.066-0.495,1.383c-0.275,0.229-0.591,0.401-0.932,0.509c-0.239,0.067-0.468,0.168-0.679,0.3
		c-0.138,0.066-0.207,0.222-0.165,0.369c0.034,0.199,0.053,0.399,0.058,0.6c0.059,0.827,0.146,1.651,0.283,2.47
		c0.019,0.146,0.059,0.289,0.12,0.423C15.081,14.03,18.619,10.994,22.2,8c-0.07-0.097-0.175-0.164-0.292-0.186
		c-0.196-0.051-0.398-0.069-0.601-0.053c-0.262,0.022-0.523,0.059-0.781,0.11c-0.082,0.027-0.172,0.016-0.245-0.031
		c-0.411-0.254-0.886-0.386-1.368-0.381c-1.039-0.018-2.076,0.111-3.079,0.383c-0.076,0.036-0.163,0.036-0.239,0
		C18.291,6.072,21.775,6.05,24.493,7.787z M23.071,12.32c0.029-0.037,0.031-0.046,0.037-0.047c1.054-0.25,2.091-0.566,3.105-0.945
		c0.2-0.074,0.2-0.08,0.206-0.279c0.017-0.519-0.353-0.971-0.864-1.06c-0.125-0.033-0.287,0.031-0.371-0.081
		c-0.07-0.12-0.125-0.249-0.164-0.382c-0.015-0.036-0.029-0.072-0.047-0.106c-0.343-0.731-1.101-1.177-1.906-1.12
		c-0.094-0.011-0.186,0.029-0.242,0.105C22.452,8.909,22.03,9.376,21.567,9.8c-1.409,1.354-2.881,2.636-4.377,3.895
		c-0.205,0.174-0.41,0.349-0.649,0.553c0.312-0.048,0.618-0.12,0.917-0.217c1.2-0.348,2.378-0.743,3.559-1.139
		c0.135-0.055,0.287-0.055,0.424,0c0.82,0.326,1.612,0.72,2.367,1.178c0.344,0.211,0.666,0.457,0.961,0.732
		c0.127,0.136,0.246,0.278,0.357,0.427c0.099-0.085,0.182-0.187,0.246-0.3c0.264-0.364,0.347-0.828,0.227-1.261
		c-0.027-0.105-0.095-0.195-0.188-0.251c-0.339-0.2-0.684-0.4-1.039-0.569C23.95,12.643,23.517,12.466,23.071,12.32L23.071,12.32z
		 M9.253,27.091c-0.001,0.058,0.021,0.113,0.061,0.156c0.336,0.448,0.773,0.812,1.275,1.061c1.675,0.766,3.628,0.604,5.155-0.426
		c0.091-0.09,0.236-0.09,0.327,0c0.032,0.023,0.065,0.043,0.1,0.061c1.188,0.764,2.63,1.024,4.01,0.727
		c0.877-0.162,1.67-0.629,2.237-1.317c0.071-0.066,0.122-0.151,0.149-0.244c-0.016-0.001-0.031-0.001-0.047,0l-0.19,0.087
		c-0.77,0.37-1.651,0.434-2.466,0.178c-0.416-0.148-0.804-0.367-1.147-0.645c-0.737-0.631-1.798-0.716-2.626-0.209
		c-0.109,0.082-0.259,0.082-0.369,0c-0.397-0.248-0.866-0.357-1.332-0.313c-0.497,0.051-0.967,0.248-1.35,0.566
		c-0.855,0.717-2.019,0.943-3.081,0.6C9.717,27.297,9.481,27.203,9.253,27.091z M8.278,20.617l0.035,0.006
		c0,0.037,0,0.076-0.008,0.113c-0.127,0.801-0.287,1.584-0.463,2.369c-0.052,0.23-0.054,0.232,0.168,0.326
		c0.036,0.016,0.072,0.028,0.109,0.039c0.423,0.108,0.871,0.071,1.271-0.105c0.075-0.027,0.127-0.095,0.134-0.174
		c0.051-0.258,0.085-0.52,0.1-0.783c0.003-1.172-0.152-2.338-0.46-3.468C9.147,18.857,9.083,18.791,9,18.772
		c-0.192-0.06-0.382-0.126-0.575-0.183c-0.257-0.075-0.256-0.071-0.344,0.179c-0.035,0.095-0.074,0.187-0.119,0.276
		c-0.177,0.354-0.386,0.69-0.623,1.006c-0.669,0.912-1.395,1.781-2.174,2.601C5.024,22.796,4.959,23,4.988,23.201
		c0.037,0.312,0.186,0.599,0.419,0.807c0.153,0.15,0.181,0.156,0.365,0.056c0.306-0.169,0.583-0.386,0.82-0.644
		c0.534-0.592,0.975-1.262,1.308-1.986C8.031,21.164,8.152,20.888,8.278,20.617z"/>
	<path id="Path_465" fill="#FFFFFF" d="M24.496,7.787c-2.717-1.735-6.199-1.713-8.894,0.056c0.076,0.036,0.163,0.036,0.239,0
		c1.004-0.271,2.04-0.4,3.079-0.383c0.483-0.005,0.958,0.127,1.368,0.381c0.072,0.047,0.162,0.058,0.245,0.031
		c0.259-0.051,0.52-0.088,0.782-0.11c0.201-0.016,0.404,0.002,0.6,0.053c0.117,0.022,0.223,0.089,0.292,0.186
		c-3.583,2.993-7.121,6.029-10.833,8.872c-0.061-0.134-0.102-0.277-0.12-0.423c-0.137-0.818-0.224-1.642-0.283-2.47
		c-0.005-0.201-0.024-0.402-0.058-0.6c-0.042-0.146,0.027-0.302,0.165-0.369c0.211-0.132,0.439-0.232,0.679-0.3
		c0.341-0.108,0.657-0.281,0.932-0.509c0.432-0.317,0.628-0.864,0.495-1.383c-0.016-0.076-0.035-0.151-0.058-0.225
		c-0.079-0.32-0.358-0.551-0.688-0.569c-0.31-0.042-0.624,0.028-0.885,0.2c-0.269,0.191-0.63,0.191-0.9,0
		c-0.311-0.211-0.687-0.303-1.06-0.26c-0.523,0.06-0.997,0.341-1.3,0.772c-0.184,0.245-0.192,0.58-0.023,0.835
		c0.215,0.437,0.6,0.766,1.064,0.912c0.275,0.082,0.535,0.208,0.768,0.376c0.305,0.193,0.518,0.502,0.589,0.856
		c0.122,0.608,0.218,1.219,0.282,1.836c0.047,0.447,0.088,0.896,0.133,1.342c0.025,0.09-0.008,0.187-0.085,0.242
		c-0.528,0.381-1.05,0.77-1.595,1.127c-0.027,0.023-0.064,0.033-0.1,0.023c-0.104-0.259-0.193-0.523-0.266-0.793
		c-0.117-0.354-0.199-0.717-0.247-1.085c-0.01-0.092-0.012-0.185-0.015-0.278c-0.005-0.133,0.055-0.26,0.16-0.342
		c0.328-0.273,0.624-0.583,0.881-0.923c0.027-0.038,0.055-0.075,0.081-0.113c0.173-0.225,0.227-0.519,0.142-0.79
		c-0.068-0.263-0.197-0.506-0.377-0.71c-0.207-0.215-0.504-0.318-0.8-0.278c-0.062,0.005-0.123,0.015-0.184,0.025
		c-0.172,0.015-0.328,0.106-0.425,0.249c-0.132,0.2-0.29,0.383-0.428,0.579c-0.039,0.067-0.113,0.106-0.19,0.1
		c-0.271-0.011-0.543-0.008-0.814,0.008c-0.387,0.032-0.727,0.269-0.893,0.62c-0.099,0.202-0.071,0.442,0.07,0.617
		c0.385,0.573,1.064,0.875,1.748,0.778c0.084-0.014,0.17-0.017,0.255-0.008c0.2-0.002,0.377,0.128,0.434,0.319
		c0.2,0.585,0.424,1.165,0.586,1.762c0.078,0.288,0.046,0.324-0.233,0.271c-0.765-0.133-1.506-0.379-2.2-0.728
		c-0.635-0.313-1.193-0.763-1.634-1.317c-0.441-0.575-0.715-1.261-0.791-1.982c-0.045-0.409-0.045-0.821,0-1.23
		c0.082-0.834,0.567-1.576,1.3-1.984c0.562-0.333,1.188-0.542,1.836-0.614c0.206-0.017,0.398-0.114,0.535-0.27
		c0.479-0.507,0.986-0.986,1.52-1.434c1.214-1.073,2.558-1.989,4-2.727c1.217-0.635,2.527-1.071,3.882-1.293
		c1.006-0.185,2.029-0.265,3.053-0.237c0.894,0.018,1.771,0.246,2.561,0.666c0.931,0.523,1.545,1.469,1.645,2.532
		c0.002,0.023,0.002,0.047,0,0.07C24.517,7.753,24.505,7.767,24.496,7.787z"/>
	<path id="Path_466" fill="#FFFFFF" d="M23.071,12.319c0.444,0.147,0.879,0.324,1.3,0.529c0.356,0.173,0.7,0.365,1.039,0.569
		c0.093,0.056,0.16,0.146,0.187,0.251c0.121,0.433,0.038,0.897-0.226,1.261c-0.064,0.114-0.147,0.215-0.246,0.3
		c-0.111-0.149-0.231-0.292-0.358-0.427c-0.294-0.275-0.615-0.521-0.959-0.732c-0.756-0.458-1.548-0.852-2.369-1.178
		c-0.135-0.055-0.287-0.055-0.424,0c-1.181,0.4-2.361,0.792-3.558,1.139c-0.3,0.097-0.606,0.169-0.917,0.217
		c0.238-0.2,0.443-0.379,0.65-0.553c1.494-1.259,2.967-2.541,4.377-3.895c0.463-0.423,0.884-0.889,1.258-1.393
		c0.057-0.076,0.148-0.116,0.242-0.105c0.806-0.057,1.563,0.387,1.908,1.118c0.017,0.035,0.031,0.071,0.047,0.106
		c0.038,0.134,0.093,0.262,0.162,0.382c0.084,0.112,0.248,0.048,0.373,0.081c0.512,0.088,0.88,0.541,0.863,1.06
		c0,0.2-0.008,0.205-0.206,0.279c-1.015,0.379-2.052,0.694-3.106,0.945C23.103,12.274,23.101,12.283,23.071,12.319z"/>
	<path id="Path_467" fill="#FFFFFF" d="M9.253,27.095c0.228,0.115,0.464,0.211,0.707,0.289c1.062,0.344,2.226,0.117,3.081-0.6
		c0.383-0.32,0.854-0.518,1.35-0.566c0.466-0.047,0.935,0.063,1.332,0.312c0.109,0.081,0.259,0.081,0.369,0
		c0.828-0.507,1.889-0.423,2.626,0.21c0.344,0.277,0.731,0.494,1.147,0.645c0.814,0.256,1.696,0.191,2.466-0.178l0.189-0.088
		c0.016-0.002,0.031-0.002,0.047,0c-0.026,0.094-0.078,0.178-0.148,0.244c-0.568,0.688-1.359,1.154-2.236,1.318
		c-1.381,0.297-2.822,0.035-4.011-0.727c-0.035-0.018-0.068-0.039-0.1-0.062c-0.091-0.089-0.236-0.089-0.327,0
		c-1.527,1.03-3.48,1.192-5.155,0.426c-0.502-0.249-0.938-0.612-1.275-1.062C9.273,27.214,9.251,27.156,9.253,27.095z"/>
	<path id="Path_468" fill="#FFFFFF" d="M8.278,20.617c-0.126,0.271-0.247,0.547-0.378,0.816c-0.334,0.726-0.777,1.396-1.312,1.99
		c-0.237,0.257-0.514,0.475-0.82,0.643c-0.184,0.1-0.211,0.094-0.365-0.055c-0.233-0.209-0.382-0.496-0.419-0.807
		C4.955,23.003,5.02,22.8,5.161,22.654c0.779-0.82,1.505-1.688,2.174-2.6c0.237-0.316,0.446-0.652,0.623-1.006
		c0.045-0.09,0.084-0.184,0.119-0.277c0.088-0.25,0.086-0.253,0.344-0.178c0.193,0.057,0.383,0.121,0.575,0.182
		c0.084,0.018,0.15,0.084,0.167,0.168c0.308,1.131,0.463,2.297,0.46,3.469c-0.015,0.262-0.049,0.523-0.1,0.782
		c-0.006,0.079-0.059,0.147-0.134,0.173c-0.4,0.178-0.848,0.215-1.271,0.106c-0.037-0.011-0.074-0.024-0.109-0.039
		c-0.222-0.095-0.219-0.101-0.168-0.326c0.176-0.786,0.337-1.573,0.463-2.368c0.006-0.039,0.006-0.076,0.008-0.115L8.278,20.617z"/>
</g>
</svg>
