<svg xmlns="http://www.w3.org/2000/svg" width="31.826" height="33.245" viewBox="0 0 31.826 33.245">
  <g id="logo-icon" transform="translate(0)">
    <path id="Path_464" data-name="Path 464" d="M15.88,33.244a14.548,14.548,0,0,1-5.06-.863,15.844,15.844,0,0,1-6.171-4.026A16.791,16.791,0,0,1,.367,20.19a17.855,17.855,0,0,1-.353-2.877,19.485,19.485,0,0,1,.035-2.09,15.11,15.11,0,0,1,.318-2.2,16.319,16.319,0,0,1,.909-2.947A17.223,17.223,0,0,1,4.063,5.536a16.2,16.2,0,0,1,4.08-3.419A15.265,15.265,0,0,1,12.439.4,15.052,15.052,0,0,1,16.592.016a15.458,15.458,0,0,1,8.623,3.129A16.289,16.289,0,0,1,29.7,8.332a16.309,16.309,0,0,1,1.244,2.8,17.818,17.818,0,0,1,.65,2.635,17.3,17.3,0,0,1-.971,9.2A16.635,16.635,0,0,1,27.4,28.112a16.211,16.211,0,0,1-4.666,3.525,15.065,15.065,0,0,1-3.465,1.239A14.578,14.578,0,0,1,15.88,33.244ZM24.493,7.787c.011-.019.023-.031.024-.044a.294.294,0,0,0,0-.07,3.249,3.249,0,0,0-1.644-2.532,5.7,5.7,0,0,0-2.561-.666,14.667,14.667,0,0,0-3.052.237,12.869,12.869,0,0,0-3.882,1.293,19.314,19.314,0,0,0-4,2.727,18.055,18.055,0,0,0-1.52,1.434.8.8,0,0,1-.535.27,4.573,4.573,0,0,0-1.836.614,2.557,2.557,0,0,0-1.3,1.984,5.557,5.557,0,0,0,0,1.23,3.933,3.933,0,0,0,.791,1.982,4.808,4.808,0,0,0,1.634,1.317,7.95,7.95,0,0,0,2.2.728c.279.053.31.016.233-.272-.162-.6-.382-1.178-.586-1.762a.447.447,0,0,0-.434-.319,1.006,1.006,0,0,0-.255.008,1.8,1.8,0,0,1-1.748-.778.578.578,0,0,1-.07-.617,1.087,1.087,0,0,1,.893-.62,7.96,7.96,0,0,1,.814-.008.2.2,0,0,0,.19-.1c.138-.2.3-.379.428-.579A.576.576,0,0,1,8.691,13c.061-.01.123-.019.184-.025a.935.935,0,0,1,.8.278,1.724,1.724,0,0,1,.377.71.869.869,0,0,1-.142.79c-.026.038-.054.076-.081.113a5.545,5.545,0,0,1-.881.923.413.413,0,0,0-.16.342c0,.093,0,.186.015.278a5.872,5.872,0,0,0,.247,1.085,7.238,7.238,0,0,0,.266.794.111.111,0,0,0,.1-.024c.544-.358,1.067-.746,1.595-1.127A.223.223,0,0,0,11.1,16.9c-.045-.447-.087-.895-.133-1.342-.064-.616-.16-1.228-.282-1.836a1.321,1.321,0,0,0-.589-.856,2.568,2.568,0,0,0-.768-.376,1.78,1.78,0,0,1-1.064-.912.725.725,0,0,1,.023-.835,1.843,1.843,0,0,1,1.3-.772,1.568,1.568,0,0,1,1.06.26.777.777,0,0,0,.9,0,1.289,1.289,0,0,1,.885-.2.75.75,0,0,1,.688.569c.023.074.042.149.058.225a1.311,1.311,0,0,1-.495,1.383,2.766,2.766,0,0,1-.932.509,2.611,2.611,0,0,0-.679.3.314.314,0,0,0-.165.369,4.123,4.123,0,0,1,.058.6c.059.827.146,1.651.283,2.47a1.464,1.464,0,0,0,.12.423C15.081,14.03,18.619,10.994,22.2,8a.465.465,0,0,0-.292-.186,1.807,1.807,0,0,0-.6-.053,7.044,7.044,0,0,0-.782.11.289.289,0,0,1-.245-.031,2.547,2.547,0,0,0-1.368-.381,11.081,11.081,0,0,0-3.079.383.282.282,0,0,1-.239,0A8.183,8.183,0,0,1,24.493,7.787Zm-1.422,4.533c.029-.037.032-.046.037-.047a26.163,26.163,0,0,0,3.106-.945c.2-.074.2-.08.206-.279a1.042,1.042,0,0,0-.864-1.06c-.125-.033-.287.031-.372-.081a1.68,1.68,0,0,1-.163-.382c-.015-.036-.03-.072-.047-.106A1.955,1.955,0,0,0,23.067,8.3a.264.264,0,0,0-.242.105A9.8,9.8,0,0,1,21.568,9.8c-1.41,1.354-2.882,2.636-4.377,3.895-.206.174-.411.349-.65.553a5.86,5.86,0,0,0,.917-.217c1.2-.348,2.378-.743,3.558-1.139a.566.566,0,0,1,.424,0,15.917,15.917,0,0,1,2.368,1.178,5.982,5.982,0,0,1,.96.732,5.048,5.048,0,0,1,.358.427,1.131,1.131,0,0,0,.246-.3,1.475,1.475,0,0,0,.226-1.261.41.41,0,0,0-.187-.251c-.339-.2-.683-.4-1.039-.569A10.392,10.392,0,0,0,23.071,12.319ZM9.253,27.091a.221.221,0,0,0,.061.156,3.577,3.577,0,0,0,1.275,1.061,5.285,5.285,0,0,0,5.155-.426.234.234,0,0,1,.327,0,.7.7,0,0,0,.1.061,5.34,5.34,0,0,0,4.01.727,3.8,3.8,0,0,0,2.237-1.318.54.54,0,0,0,.149-.244.209.209,0,0,0-.047,0l-.19.087a3.367,3.367,0,0,1-2.466.178,3.954,3.954,0,0,1-1.147-.645,2.24,2.24,0,0,0-2.626-.209.309.309,0,0,1-.369,0,2.124,2.124,0,0,0-1.332-.312,2.5,2.5,0,0,0-1.35.566,3.243,3.243,0,0,1-3.081.6A4.955,4.955,0,0,1,9.253,27.091Zm-.975-6.475.035.006c0,.038,0,.077-.008.114-.127.8-.287,1.584-.463,2.369-.052.23-.054.232.168.326a.909.909,0,0,0,.109.039,1.942,1.942,0,0,0,1.271-.106.2.2,0,0,0,.134-.173,5.706,5.706,0,0,0,.1-.783,13.066,13.066,0,0,0-.46-3.468A.214.214,0,0,0,9,18.772c-.192-.06-.382-.126-.575-.182-.257-.076-.256-.072-.344.178a2.7,2.7,0,0,1-.119.277,6.63,6.63,0,0,1-.623,1.006,26.723,26.723,0,0,1-2.174,2.6.657.657,0,0,0-.177.55,1.281,1.281,0,0,0,.419.807c.153.149.181.155.365.055a3.242,3.242,0,0,0,.82-.643A7.921,7.921,0,0,0,7.9,21.433C8.031,21.163,8.152,20.888,8.278,20.616Z" transform="translate(0 0)" fill="#585757" fill-rule="evenodd"/>
    <path id="Path_465" data-name="Path 465" d="M63.1,49.334a8.183,8.183,0,0,0-8.894.056.281.281,0,0,0,.239,0,11.081,11.081,0,0,1,3.079-.383,2.546,2.546,0,0,1,1.368.381.289.289,0,0,0,.245.031,7.034,7.034,0,0,1,.782-.11,1.807,1.807,0,0,1,.6.053.465.465,0,0,1,.292.186c-3.583,2.993-7.121,6.029-10.833,8.872a1.467,1.467,0,0,1-.12-.423c-.137-.818-.224-1.642-.283-2.47a4.123,4.123,0,0,0-.058-.6.314.314,0,0,1,.165-.369,2.611,2.611,0,0,1,.679-.3,2.768,2.768,0,0,0,.932-.509,1.311,1.311,0,0,0,.495-1.383c-.016-.076-.035-.151-.058-.225a.75.75,0,0,0-.688-.569,1.289,1.289,0,0,0-.885.2.777.777,0,0,1-.9,0,1.568,1.568,0,0,0-1.06-.26,1.843,1.843,0,0,0-1.3.772.725.725,0,0,0-.023.835,1.78,1.78,0,0,0,1.064.912,2.568,2.568,0,0,1,.768.376,1.321,1.321,0,0,1,.589.856c.122.608.218,1.219.282,1.836.047.447.088.895.133,1.342a.223.223,0,0,1-.085.242c-.528.381-1.05.769-1.595,1.127a.111.111,0,0,1-.1.024,7.265,7.265,0,0,1-.266-.794,5.864,5.864,0,0,1-.247-1.085c-.01-.092-.012-.185-.015-.278a.413.413,0,0,1,.16-.342,5.546,5.546,0,0,0,.881-.923c.027-.038.055-.075.081-.113a.869.869,0,0,0,.142-.79,1.724,1.724,0,0,0-.377-.71.935.935,0,0,0-.8-.278c-.062.005-.123.015-.184.025a.576.576,0,0,0-.425.249c-.132.2-.29.383-.428.579a.2.2,0,0,1-.19.1,7.956,7.956,0,0,0-.814.008,1.087,1.087,0,0,0-.893.62.578.578,0,0,0,.07.617,1.8,1.8,0,0,0,1.748.778,1,1,0,0,1,.255-.008.447.447,0,0,1,.434.319c.2.585.424,1.164.586,1.762.078.288.046.324-.233.272a7.947,7.947,0,0,1-2.2-.728,4.807,4.807,0,0,1-1.634-1.317,3.935,3.935,0,0,1-.791-1.982,5.557,5.557,0,0,1,0-1.23,2.557,2.557,0,0,1,1.3-1.984,4.573,4.573,0,0,1,1.836-.614.8.8,0,0,0,.535-.27,18.04,18.04,0,0,1,1.52-1.434,19.315,19.315,0,0,1,4-2.727,12.868,12.868,0,0,1,3.882-1.293,14.674,14.674,0,0,1,3.052-.237,5.7,5.7,0,0,1,2.561.666,3.249,3.249,0,0,1,1.644,2.532.289.289,0,0,1,0,.07C63.121,49.3,63.109,49.314,63.1,49.334Z" transform="translate(-38.604 -41.547)" fill="#fff" fill-rule="evenodd"/>
    <path id="Path_466" data-name="Path 466" d="M177.113,89.614a10.428,10.428,0,0,1,1.3.529c.356.173.7.365,1.039.569a.41.41,0,0,1,.187.251,1.475,1.475,0,0,1-.226,1.261,1.134,1.134,0,0,1-.246.3,5.071,5.071,0,0,0-.358-.427,5.967,5.967,0,0,0-.96-.732,15.912,15.912,0,0,0-2.368-1.178.566.566,0,0,0-.424,0c-1.181.4-2.362.792-3.558,1.139a5.837,5.837,0,0,1-.917.217c.239-.2.443-.379.65-.553,1.494-1.259,2.967-2.541,4.377-3.895a9.8,9.8,0,0,0,1.258-1.393.264.264,0,0,1,.242-.105,1.955,1.955,0,0,1,1.908,1.118c.017.035.032.071.047.106a1.682,1.682,0,0,0,.163.382c.084.112.247.048.372.081a1.042,1.042,0,0,1,.864,1.06c0,.2-.008.205-.206.279a26.183,26.183,0,0,1-3.106.945C177.145,89.569,177.142,89.578,177.113,89.614Z" transform="translate(-154.042 -77.295)" fill="#fff" fill-rule="evenodd"/>
    <path id="Path_467" data-name="Path 467" d="M95.423,271a4.959,4.959,0,0,0,.707.288,3.243,3.243,0,0,0,3.081-.6,2.5,2.5,0,0,1,1.35-.566,2.124,2.124,0,0,1,1.332.312.309.309,0,0,0,.369,0,2.24,2.24,0,0,1,2.626.209,3.95,3.95,0,0,0,1.147.645,3.367,3.367,0,0,0,2.466-.178l.19-.087a.207.207,0,0,1,.047,0,.541.541,0,0,1-.149.244,3.8,3.8,0,0,1-2.237,1.318,5.34,5.34,0,0,1-4.01-.727.708.708,0,0,1-.1-.061.234.234,0,0,0-.327,0,5.285,5.285,0,0,1-5.155.426,3.58,3.58,0,0,1-1.275-1.061A.223.223,0,0,1,95.423,271Z" transform="translate(-86.17 -243.904)" fill="#fff" fill-rule="evenodd"/>
    <path id="Path_468" data-name="Path 468" d="M54.652,193.343c-.126.273-.247.547-.378.817a7.919,7.919,0,0,1-1.312,1.99,3.247,3.247,0,0,1-.82.643c-.184.1-.211.094-.365-.055a1.282,1.282,0,0,1-.419-.807.657.657,0,0,1,.177-.55,26.736,26.736,0,0,0,2.174-2.6,6.629,6.629,0,0,0,.623-1.006,2.722,2.722,0,0,0,.119-.277c.088-.25.086-.253.344-.178.193.057.383.122.575.182a.214.214,0,0,1,.167.168,13.066,13.066,0,0,1,.46,3.468,5.709,5.709,0,0,1-.1.783.2.2,0,0,1-.134.173,1.942,1.942,0,0,1-1.271.106.914.914,0,0,1-.109-.039c-.222-.094-.219-.1-.168-.326.176-.786.337-1.574.463-2.369.006-.038.006-.076.008-.114Z" transform="translate(-46.374 -172.727)" fill="#fff" fill-rule="evenodd"/>
  </g>
</svg>
