<svg xmlns="http://www.w3.org/2000/svg" width="33.451" height="32.031" viewBox="0 0 33.451 32.031">
  <g id="philosphy-icon" transform="translate(0 0)">
    <path id="Path_469" data-name="Path 469" d="M33.453,272.576a5.257,5.257,0,0,1-1.85,2.409c-1.2.933-2.431,1.839-3.691,2.694a6.934,6.934,0,0,1-3,.913c-1.764.255-3.526.533-5.3.715a5.7,5.7,0,0,1-1.868-.219,31.275,31.275,0,0,1-5.415-1.8,5.407,5.407,0,0,0-6.477,1.176,8.517,8.517,0,0,1-.937.786.553.553,0,0,1-.815-.115q-1.928-2.092-3.888-4.155a.514.514,0,0,1-.09-.751,19.067,19.067,0,0,1,7.324-6.477,6.709,6.709,0,0,1,3.856-.414,20.63,20.63,0,0,1,4.584,1.353,15.46,15.46,0,0,0,4.343.917c1.109.1,2.217.229,3.32.382a1.91,1.91,0,0,1,1.425,1.029,1.214,1.214,0,0,1-.059,1.364,2.845,2.845,0,0,1-2.882,1.018,9.293,9.293,0,0,0-4.053-.088c-.108.02-.213.058-.32.088l-.108.124a3.725,3.725,0,0,1,.4.248,5.608,5.608,0,0,0,4.384,1.212c1.167-.147,2.335-.288,3.5-.467a4.877,4.877,0,0,0,2.785-1.366,8.19,8.19,0,0,1,2.356-1.729c.124-.056.247-.116.373-.166a1.385,1.385,0,0,1,2.1.8Q33.453,272.316,33.453,272.576Z" transform="translate(-0.002 -247.348)" fill="#585757" fill-rule="evenodd"/>
    <path id="Path_470" data-name="Path 470" d="M85.585,17.022c.118-.609.224-1.213.352-1.812a39.3,39.3,0,0,1,1.8-6.036c.135-.347.115-.534-.238-.736a4.469,4.469,0,0,1-1.588-1.484,2.671,2.671,0,0,1,.267-3.386,6.9,6.9,0,0,1,3.1-1.9c1.439-.489,2.891-.941,4.336-1.412.164-.054.32-.132.481-.2.388-.152.669-.015.734.4.118.757.248,1.515.3,2.278A24.291,24.291,0,0,1,95.2,5.632a7.507,7.507,0,0,1-.39,2.065,2.235,2.235,0,0,1-2.432,1.631,20.074,20.074,0,0,1-2.771-.18c-.538-.052-.583-.065-.769.43a36.124,36.124,0,0,0-2.184,8.489c-.058.5-.107.995-.16,1.492l.089.029a1.86,1.86,0,0,0,.205-.187,12.865,12.865,0,0,1,2.52-2.3.446.446,0,0,0,.205-.555,3.414,3.414,0,0,1,2.161-3.888,3.1,3.1,0,0,1,1.863.133c.936.358,1.856.757,2.793,1.11a4.387,4.387,0,0,0,1.076.254.724.724,0,0,1,.658,1.054,9.449,9.449,0,0,1-.9,1.655,11.339,11.339,0,0,1-2.207,2.349,2.375,2.375,0,0,1-2.959.2,11.429,11.429,0,0,1-1.606-1.3c-.161-.143-.255-.182-.433-.049a10.7,10.7,0,0,0-2.765,2.777.445.445,0,0,1-.55.231,4.418,4.418,0,0,0-.919-.108c-.335,0-.45-.173-.491-.472a10.424,10.424,0,0,0-1.693-4.511,8.572,8.572,0,0,0-1.868-1.953c-.228-.177-.363-.194-.559.072A2.879,2.879,0,0,1,78.4,15.467a2.323,2.323,0,0,1-1.93-1.214c-.374-.7-.712-1.415-1.064-2.125a7.35,7.35,0,0,0-1.687-2.469,9.972,9.972,0,0,0-1.576-1.023c-.257-.145-.448-.275-.377-.588s.308-.359.575-.347a29.455,29.455,0,0,0,4.872-.412,4.445,4.445,0,0,1,4.051,1.29,3.393,3.393,0,0,1,.817,2.761c-.04.38-.141.753-.183,1.132a.448.448,0,0,0,.128.358,9.745,9.745,0,0,1,3.336,3.963,1.177,1.177,0,0,0,.118.186C85.49,16.995,85.521,17,85.585,17.022Z" transform="translate(-66.41 0.001)" fill="#585757" fill-rule="evenodd"/>
  </g>
</svg>
