<?xml version="1.0" encoding="utf-8"?>
<!-- Generator: Adobe Illustrator 16.0.0, SVG Export Plug-In . SVG Version: 6.00 Build 0)  -->
<!DOCTYPE svg PUBLIC "-//W3C//DTD SVG 1.1//EN" "http://www.w3.org/Graphics/SVG/1.1/DTD/svg11.dtd">
<svg version="1.1" id="Layer_1" xmlns="http://www.w3.org/2000/svg" xmlns:xlink="http://www.w3.org/1999/xlink" x="0px" y="0px"
	 width="33.451px" height="32.031px" viewBox="0 0 33.451 32.031" enable-background="new 0 0 33.451 32.031" xml:space="preserve">
<g id="philosphy-icon" transform="translate(0 0)">
	<path id="Path_469" fill="#FEBC12" d="M33.451,25.229c-0.366,0.967-1.01,1.805-1.851,2.408c-1.199,0.934-2.431,1.84-3.69,2.694
		c-0.917,0.529-1.943,0.842-3,0.913c-1.765,0.255-3.526,0.533-5.3,0.715c-0.631,0.031-1.262-0.043-1.868-0.219
		c-1.856-0.434-3.669-1.037-5.415-1.801c-2.177-1.118-4.833-0.636-6.477,1.177c-0.293,0.284-0.606,0.547-0.937,0.786
		c-0.234,0.196-0.583,0.166-0.779-0.068c-0.013-0.015-0.025-0.03-0.036-0.047c-1.286-1.395-2.582-2.779-3.888-4.155
		c-0.23-0.166-0.282-0.487-0.116-0.718c0.008-0.012,0.017-0.022,0.026-0.033c1.837-2.759,4.361-4.991,7.324-6.477
		c1.217-0.515,2.558-0.659,3.856-0.414c1.575,0.271,3.114,0.726,4.584,1.353c1.396,0.513,2.859,0.822,4.344,0.917
		c1.108,0.1,2.217,0.229,3.319,0.383c0.614,0.09,1.146,0.475,1.425,1.028c0.262,0.424,0.239,0.965-0.059,1.364
		c-0.682,0.87-1.805,1.268-2.882,1.018c-1.328-0.327-2.712-0.357-4.054-0.088c-0.107,0.02-0.213,0.059-0.319,0.088l-0.108,0.124
		c0.139,0.074,0.272,0.157,0.4,0.248c1.225,1.005,2.816,1.445,4.384,1.212c1.167-0.146,2.335-0.287,3.5-0.467
		c1.052-0.141,2.03-0.619,2.785-1.366c0.675-0.713,1.474-1.298,2.356-1.729c0.123-0.056,0.246-0.116,0.373-0.166
		c0.639-0.421,1.497-0.244,1.918,0.395c0.082,0.124,0.143,0.261,0.182,0.405C33.45,24.882,33.451,25.055,33.451,25.229z"/>
	<path id="Path_470" fill="#FEBC12" d="M19.175,17.023c0.118-0.609,0.225-1.213,0.352-1.813c0.438-2.057,1.04-4.075,1.801-6.036
		c0.135-0.347,0.115-0.534-0.238-0.736c-0.644-0.356-1.188-0.866-1.588-1.484c-0.732-1.047-0.621-2.467,0.268-3.386
		c0.844-0.899,1.915-1.555,3.1-1.9c1.439-0.489,2.891-0.941,4.336-1.412c0.164-0.054,0.32-0.132,0.48-0.2
		c0.389-0.152,0.67-0.015,0.734,0.4c0.118,0.757,0.248,1.515,0.3,2.278c0.081,0.964,0.105,1.932,0.071,2.898
		c-0.033,0.703-0.164,1.398-0.391,2.065c-0.291,1.073-1.328,1.768-2.432,1.631c-0.927,0.004-1.853-0.056-2.771-0.18
		c-0.537-0.052-0.582-0.065-0.769,0.43c-1.069,2.73-1.804,5.581-2.184,8.489c-0.058,0.5-0.107,0.994-0.16,1.492l0.089,0.028
		c0.073-0.058,0.142-0.12,0.205-0.187c0.734-0.875,1.582-1.648,2.52-2.301c0.199-0.105,0.287-0.344,0.205-0.555
		c-0.338-1.652,0.58-3.303,2.162-3.888c0.619-0.148,1.27-0.102,1.862,0.133c0.937,0.358,1.856,0.757,2.793,1.11
		c0.347,0.13,0.708,0.215,1.076,0.254c0.399-0.008,0.729,0.31,0.737,0.71c0.002,0.119-0.025,0.237-0.08,0.344
		c-0.244,0.58-0.545,1.135-0.899,1.655c-0.62,0.884-1.363,1.675-2.207,2.349c-0.818,0.75-2.047,0.833-2.959,0.2
		c-0.573-0.384-1.11-0.819-1.606-1.3c-0.16-0.144-0.254-0.183-0.433-0.05c-1.085,0.748-2.022,1.689-2.765,2.777
		c-0.098,0.207-0.335,0.307-0.551,0.231c-0.301-0.068-0.609-0.104-0.918-0.108c-0.336,0-0.451-0.173-0.491-0.472
		c-0.204-1.615-0.784-3.16-1.693-4.511c-0.516-0.746-1.146-1.405-1.868-1.953c-0.228-0.177-0.363-0.194-0.559,0.072
		c-0.571,0.935-1.623,1.465-2.714,1.367c-0.812-0.039-1.543-0.5-1.93-1.214c-0.374-0.7-0.712-1.415-1.064-2.125
		c-0.387-0.93-0.961-1.771-1.687-2.469c-0.492-0.39-1.02-0.732-1.576-1.023C5.476,8.492,5.285,8.362,5.356,8.049
		S5.664,7.69,5.931,7.702C7.563,7.7,9.193,7.562,10.803,7.29c1.482-0.286,3.007,0.2,4.051,1.29c0.668,0.753,0.968,1.765,0.817,2.761
		c-0.04,0.38-0.141,0.753-0.183,1.132c-0.012,0.132,0.035,0.263,0.128,0.358c1.449,0.996,2.602,2.365,3.336,3.963
		c0.033,0.065,0.072,0.128,0.117,0.187C19.08,16.996,19.11,17.001,19.175,17.023z"/>
</g>
</svg>
