<?xml version="1.0" encoding="utf-8"?>
<!-- Generator: Adobe Illustrator 16.0.0, SVG Export Plug-In . SVG Version: 6.00 Build 0)  -->
<!DOCTYPE svg PUBLIC "-//W3C//DTD SVG 1.1//EN" "http://www.w3.org/Graphics/SVG/1.1/DTD/svg11.dtd">
<svg version="1.1" id="Layer_1" xmlns="http://www.w3.org/2000/svg" xmlns:xlink="http://www.w3.org/1999/xlink" x="0px" y="0px"
	 width="27.852px" height="27.896px" viewBox="0 0 27.852 27.896" enable-background="new 0 0 27.852 27.896" xml:space="preserve">
<path id="philosphy" fill="#FEBC12" d="M0,27.892V11.235h1.885c0-1.62,0.028-3.164-0.014-4.706C1.865,6.051,2.112,5.604,2.52,5.356
	C3.459,4.31,5.068,4.224,6.113,5.163c0.063,0.057,0.123,0.116,0.181,0.179c0.438,0.26,0.693,0.741,0.665,1.248
	C6.906,7.283,6.946,7.982,6.946,8.746h3.095V0.001h6.181v5.338h2.371v5.063h1.928c0-1-0.021-1.977,0.016-2.95
	c0.007-0.265,0.122-0.515,0.319-0.691c1.458-0.934,2.942-1.827,4.421-2.729c0.098-0.032,0.198-0.052,0.301-0.059v10.71h2.277v13.213
	c-1.749,0-3.454,0.011-5.159-0.016c-0.221-0.036-0.42-0.153-0.558-0.33c-0.637-0.84-1.655-1.301-2.706-1.224
	c-0.979,0.064-1.917-0.395-2.468-1.206c-0.68-0.761-1.644-1.207-2.663-1.234c0-1.768-0.125-3.5,0.039-5.207
	c0.152-1.338,1.006-2.493,2.239-3.033c-0.422,0.958-0.791,1.938-1.106,2.937c-0.249,0.931-0.017,1.093,0.95,0.908
	c1.355-0.188,2.443-1.215,2.709-2.557c0.201-1.131,0.34-2.271,0.416-3.416c-4.365-0.439-6.707,1.854-6.223,6.526
	c-1.935-1.842-4.266-2.142-6.685-2.191c-0.171,2.539,1.749,4.736,4.288,4.907c0.203,0.014,0.408,0.014,0.612,0
	c-0.267-1.217-0.961-2.298-1.957-3.046c1.983,0.289,3.469,1.967,3.517,3.971c-0.054,0.26-0.203,0.489-0.419,0.645
	c-1.326,0.917-2.888,1.435-4.5,1.489c-1.13,0.082-2.143,0.73-2.688,1.724c-0.09,0.15-0.285,0.333-0.434,0.335
	C3.387,27.901,1.713,27.892,0,27.892z"/>
</svg>
