<svg xmlns="http://www.w3.org/2000/svg" width="27.852" height="27.896" viewBox="0 0 27.852 27.896">
  <path id="philosphy" d="M0,27.891V11.234H1.885c0-1.62.028-3.164-.014-4.706A1.352,1.352,0,0,1,2.52,5.355a2.544,2.544,0,0,1,3.773-.014,1.361,1.361,0,0,1,.665,1.248c-.053.693-.012,1.392-.012,2.156H10.04V0h6.181V5.338h2.371V10.4H20.52c0-1-.021-1.976.015-2.95a.959.959,0,0,1,.32-.691c1.458-.934,2.942-1.828,4.421-2.73a1.188,1.188,0,0,1,.3-.058V14.68h2.278V27.893c-1.749,0-3.454.011-5.159-.015a.89.89,0,0,1-.558-.33,3.111,3.111,0,0,0-2.706-1.224,2.763,2.763,0,0,1-2.468-1.206A3.7,3.7,0,0,0,14.3,23.884c0-1.768-.125-3.5.039-5.207a3.78,3.78,0,0,1,2.239-3.034,29.083,29.083,0,0,0-1.106,2.937c-.249.931-.017,1.093.95.908a3.211,3.211,0,0,0,2.709-2.557,31.434,31.434,0,0,0,.416-3.416c-4.365-.439-6.707,1.854-6.223,6.527C11.39,18.2,9.059,17.9,6.64,17.85a4.608,4.608,0,0,0,4.9,4.908,5.2,5.2,0,0,0-1.957-3.046,4.111,4.111,0,0,1,3.517,3.97,1.059,1.059,0,0,1-.419.645,8.414,8.414,0,0,1-4.5,1.489,3.346,3.346,0,0,0-2.689,1.724c-.089.15-.285.333-.433.335C3.387,27.9,1.713,27.891,0,27.891Z" transform="translate(0 0.001)" fill="#585757" fill-rule="evenodd"/>
</svg>
