<svg xmlns="http://www.w3.org/2000/svg" width="55.67" height="32.712" viewBox="0 0 55.67 32.712">
  <g id="team-icon" transform="translate(0)">
    <g id="Group_105" data-name="Group 105" transform="translate(0 10.654)">
      <path id="Path_474" data-name="Path 474" d="M40.712,83.97c-.7-.182-1.362-.312-1.993-.534-.492-.173-1.105-.367-1.1-1.012s.587-.86,1.1-1.014a17.632,17.632,0,0,1,2.08-.477.562.562,0,0,0,.527-.483,14.607,14.607,0,0,1,.436-1.486.914.914,0,0,1,1.24-.7,7.262,7.262,0,0,0,2.972.06c.839-.165,1.216.1,1.508.9a5.81,5.81,0,0,1,.315,1.02c.085.522.4.657.872.74a15.644,15.644,0,0,1,2.168.551c.4.132.888.4.785.882a1.426,1.426,0,0,1-.761.85,22.164,22.164,0,0,1-2.3.73,1.56,1.56,0,0,1,.543,1.55,4.112,4.112,0,0,1-.5.913c-.182.293-.408.56-.575.86-.423.76-.792,1.551-1.24,2.295-.841,1.4-3.558,1.307-4.363-.037-.455-.76-.813-1.578-1.218-2.368a2.081,2.081,0,0,0-.34-.59C39.9,85.732,39.845,85.019,40.712,83.97Zm3.95.107c-.838,0-1.676.005-2.515,0-.456,0-1.256.763-1.192,1.213a1.4,1.4,0,0,0,.333.566,4.812,4.812,0,0,1,.509.594c.44.849.809,1.735,1.272,2.571a1.933,1.933,0,0,0,3.1-.04c.439-.85.821-1.728,1.251-2.582a1.242,1.242,0,0,1,.449-.5.66.66,0,0,0,.161-1.107c-.126-.118-.316-.227-.351-.371-.082-.337-.292-.343-.561-.34C46.3,84.084,45.482,84.078,44.662,84.078Z" transform="translate(-31.609 -76.385)" fill="#585757" fill-rule="evenodd"/>
      <path id="Path_475" data-name="Path 475" d="M62.012,155.951a5.176,5.176,0,0,1,.887-.187.743.743,0,0,1,.527.2,1.872,1.872,0,0,0,3.081.126.931.931,0,0,1,1.021-.3c2.975.788,5.2,2.411,6.052,5.508a14.947,14.947,0,0,1,.27,2.207H64.714l.646-.392Z" transform="translate(-52.112 -141.538)" fill="#585757" fill-rule="evenodd"/>
      <path id="Path_476" data-name="Path 476" d="M12.636,88.115l-.786.363L4.135,71.992c-.567.24-1.083.485-1.617.678a2.011,2.011,0,0,1-2.224-.625c-.378-.463-.359-.724.089-1.113-.153-.514-.673-.977-.165-1.714l1.224,1.467c-.035-.716-.726-1.241-.17-1.913a4.915,4.915,0,0,1,.645.579,6.359,6.359,0,0,0,.49.706c.084-.6-.571-1.092-.174-1.7.817-.029.776.872,1.381,1.3-.049-.716-.7-1.194-.314-1.831.8.011.795.865,1.376,1.2l-.4-1.8c.942.078.961.875,1.446,1.4.09-.724-.7-1.227-.252-1.886.531.06.73.465.956.878A1.076,1.076,0,0,0,6.985,68a1.8,1.8,0,0,1-.551,2.83c-.472.281-.971.516-1.5.793Z" transform="translate(-0.001 -66.741)" fill="#585757" fill-rule="evenodd"/>
      <path id="Path_477" data-name="Path 477" d="M26.821,168.4a6.975,6.975,0,0,1,3.918-6.822l3.2,6.822Z" transform="translate(-22.513 -146.436)" fill="#585757" fill-rule="evenodd"/>
      <path id="Path_478" data-name="Path 478" d="M62.23,114.908c.82,0,1.641.006,2.461,0,.269,0,.48,0,.561.34.035.144.225.252.351.371a.66.66,0,0,1-.161,1.107,1.243,1.243,0,0,0-.449.5c-.43.854-.812,1.733-1.251,2.582a1.933,1.933,0,0,1-3.1.04c-.463-.835-.833-1.722-1.272-2.571a4.813,4.813,0,0,0-.509-.594,1.407,1.407,0,0,1-.333-.566c-.063-.451.736-1.217,1.192-1.213C60.554,114.913,61.392,114.908,62.23,114.908Z" transform="translate(-49.178 -107.216)" fill="#fff" fill-rule="evenodd"/>
    </g>
    <g id="Group_106" data-name="Group 106" transform="translate(13.593)">
      <path id="Path_479" data-name="Path 479" d="M117.2,29.591a3.1,3.1,0,0,0-.505.878c-.6,1.176-1.135,2.393-1.813,3.524-1.2,2-5.242,2.135-6.494.055-.667-1.107-1.216-2.285-1.845-3.416-.249-.447-.586-.844-.856-1.28a6.12,6.12,0,0,1-.747-1.359,2.323,2.323,0,0,1,.808-2.307,32.967,32.967,0,0,1-3.427-1.087,2.125,2.125,0,0,1-1.133-1.265c-.152-.714.574-1.116,1.169-1.312a23.314,23.314,0,0,1,3.227-.819c.7-.125,1.172-.324,1.3-1.1a8.639,8.639,0,0,1,.469-1.518c.434-1.2,1-1.59,2.244-1.345a10.8,10.8,0,0,0,4.424-.09,1.36,1.36,0,0,1,1.845,1.043,21.708,21.708,0,0,1,.649,2.212.837.837,0,0,0,.784.719,26.191,26.191,0,0,1,3.1.709c.76.228,1.633.556,1.634,1.508s-.911,1.249-1.644,1.507c-.94.33-1.929.524-2.967.795C118.7,27.2,118.617,28.265,117.2,29.591ZM107.871,25.8c-.4,0-.714,0-.835.505-.052.214-.335.376-.522.552a.983.983,0,0,0,.24,1.648,1.85,1.85,0,0,1,.668.751c.64,1.271,1.209,2.579,1.862,3.844.8,1.54,3.757,1.618,4.62.06.689-1.243,1.239-2.563,1.894-3.826a7.148,7.148,0,0,1,.758-.884,2.093,2.093,0,0,0,.5-.842c.095-.67-1.1-1.812-1.774-1.806-1.247.011-2.495,0-3.742,0C110.313,25.8,109.092,25.811,107.871,25.8Z" transform="translate(-98.606 -14.353)" fill="#585757" fill-rule="evenodd"/>
      <path id="Path_480" data-name="Path 480" d="M102.765,132.777a7.688,7.688,0,0,0-1.32-.278,1.1,1.1,0,0,0-.784.3c-1.427,1.645-3.037,1.755-4.585.188a1.386,1.386,0,0,0-1.52-.444c-4.428,1.173-7.741,3.589-9.008,8.2a22.269,22.269,0,0,0-.4,3.284h13.6l-.962-.583Z" transform="translate(-85.145 -111.324)" fill="#585757" fill-rule="evenodd"/>
      <path id="Path_481" data-name="Path 481" d="M170.006,31.813l1.17.541L182.66,7.815c.844.357,1.612.721,2.407,1.009a2.994,2.994,0,0,0,3.31-.93c.562-.689.534-1.078-.133-1.657.227-.765,1-1.454.246-2.551L186.668,5.87c.052-1.065,1.081-1.847.252-2.847a7.337,7.337,0,0,0-.96.862,9.428,9.428,0,0,1-.729,1.051c-.125-.891.849-1.625.259-2.524-1.217-.043-1.156,1.3-2.055,1.932.074-1.065,1.037-1.777.468-2.725-1.194.017-1.183,1.287-2.048,1.782l.6-2.678c-1.4.116-1.431,1.3-2.152,2.085-.134-1.077,1.034-1.825.374-2.808-.79.089-1.086.693-1.423,1.306a1.6,1.6,0,0,1-.831.573,2.674,2.674,0,0,0,.821,4.212c.7.419,1.446.768,2.231,1.18Z" transform="translate(-156.459)" fill="#585757" fill-rule="evenodd"/>
      <path id="Path_482" data-name="Path 482" d="M191.882,151.3a10.381,10.381,0,0,0-5.831-10.153L181.288,151.3Z" transform="translate(-165.94 -118.614)" fill="#585757" fill-rule="evenodd"/>
      <path id="Path_483" data-name="Path 483" d="M137.861,71.689c-1.221,0-2.442.009-3.663-.005-.4,0-.714,0-.835.505-.052.214-.335.376-.522.552a.983.983,0,0,0,.24,1.648,1.851,1.851,0,0,1,.668.751c.64,1.271,1.209,2.579,1.862,3.844.8,1.54,3.757,1.618,4.62.06.689-1.243,1.239-2.563,1.894-3.826a7.152,7.152,0,0,1,.758-.884,2.093,2.093,0,0,0,.5-.842c.094-.67-1.1-1.812-1.774-1.806C140.356,71.7,139.109,71.689,137.861,71.689Z" transform="translate(-124.934 -60.24)" fill="#fff" fill-rule="evenodd"/>
    </g>
    <g id="Group_107" data-name="Group 107" transform="translate(35.872 12.703)">
      <path id="Path_484" data-name="Path 484" d="M244.316,97.681a1.9,1.9,0,0,0-.309.537c-.369.72-.695,1.465-1.109,2.157a2.576,2.576,0,0,1-3.974.034c-.408-.678-.744-1.4-1.129-2.09-.152-.273-.358-.516-.523-.783a3.74,3.74,0,0,1-.457-.832,1.421,1.421,0,0,1,.495-1.412,20.142,20.142,0,0,1-2.1-.665,1.3,1.3,0,0,1-.694-.774c-.093-.437.351-.683.715-.8a14.275,14.275,0,0,1,1.975-.5c.43-.076.717-.2.795-.674a5.278,5.278,0,0,1,.287-.929c.266-.735.609-.973,1.373-.823a6.609,6.609,0,0,0,2.707-.055.832.832,0,0,1,1.129.639,13.214,13.214,0,0,1,.4,1.354.512.512,0,0,0,.48.44,16.029,16.029,0,0,1,1.894.434c.465.139,1,.34,1,.923s-.558.764-1.006.922c-.575.2-1.18.321-1.816.486A1.484,1.484,0,0,1,244.316,97.681Zm-5.707-2.322c-.245,0-.437,0-.511.309-.032.131-.2.23-.319.337a.6.6,0,0,0,.147,1.008,1.134,1.134,0,0,1,.409.46c.392.778.74,1.578,1.139,2.352a1.761,1.761,0,0,0,2.827.037c.422-.761.758-1.568,1.159-2.341a4.375,4.375,0,0,1,.464-.541,1.279,1.279,0,0,0,.3-.515c.058-.41-.67-1.109-1.086-1.105-.763.007-1.527,0-2.29,0C240.1,95.363,239.357,95.368,238.61,95.359Z" transform="translate(-232.941 -88.357)" fill="#585757" fill-rule="evenodd"/>
      <path id="Path_485" data-name="Path 485" d="M235.486,160.821a4.709,4.709,0,0,0-.808-.17.677.677,0,0,0-.48.182,1.705,1.705,0,0,1-2.806.115.848.848,0,0,0-.93-.272c-2.71.718-4.737,2.2-5.512,5.016a13.615,13.615,0,0,0-.246,2.01h8.321l-.589-.357Z" transform="translate(-224.704 -147.694)" fill="#585757" fill-rule="evenodd"/>
      <path id="Path_486" data-name="Path 486" d="M276.631,99.04l.716.331,7.027-15.016c.516.219.986.441,1.473.618a1.832,1.832,0,0,0,2.026-.569c.344-.422.327-.659-.081-1.014.139-.468.612-.89.151-1.561l-1.115,1.336c.032-.652.661-1.13.154-1.742a4.48,4.48,0,0,0-.588.528,5.768,5.768,0,0,1-.446.643c-.076-.545.52-.994.159-1.545-.744-.026-.707.794-1.258,1.182.045-.652.635-1.087.286-1.668-.73.01-.724.788-1.253,1.091l.364-1.639c-.858.071-.875.8-1.317,1.276-.082-.659.633-1.117.229-1.718-.483.054-.665.424-.871.8a.979.979,0,0,1-.509.351,1.636,1.636,0,0,0,.5,2.577c.43.256.885.47,1.365.722Z" transform="translate(-268.341 -79.573)" fill="#585757" fill-rule="evenodd"/>
      <path id="Path_487" data-name="Path 487" d="M290.016,172.156a6.352,6.352,0,0,0-3.568-6.213l-2.914,6.213Z" transform="translate(-274.142 -152.155)" fill="#585757" fill-rule="evenodd"/>
      <path id="Path_488" data-name="Path 488" d="M256.96,123.439c-.747,0-1.494.006-2.241,0-.245,0-.437,0-.511.309-.032.131-.2.23-.319.337a.6.6,0,0,0,.147,1.008,1.134,1.134,0,0,1,.409.46c.392.778.74,1.578,1.14,2.352a1.761,1.761,0,0,0,2.827.037c.422-.761.758-1.568,1.159-2.341a4.371,4.371,0,0,1,.464-.541,1.278,1.278,0,0,0,.3-.515c.058-.41-.67-1.109-1.086-1.105C258.487,123.444,257.724,123.439,256.96,123.439Z" transform="translate(-249.05 -116.433)" fill="#fff" fill-rule="evenodd"/>
    </g>
  </g>
</svg>
