<?xml version="1.0" encoding="utf-8"?>
<!-- Generator: Adobe Illustrator 16.0.0, SVG Export Plug-In . SVG Version: 6.00 Build 0)  -->
<!DOCTYPE svg PUBLIC "-//W3C//DTD SVG 1.1//EN" "http://www.w3.org/Graphics/SVG/1.1/DTD/svg11.dtd">
<svg version="1.1" id="Layer_1" xmlns="http://www.w3.org/2000/svg" xmlns:xlink="http://www.w3.org/1999/xlink" x="0px" y="0px"
	 width="55.67px" height="32.711px" viewBox="0 0 55.67 32.711" enable-background="new 0 0 55.67 32.711" xml:space="preserve">
<g id="team-icon" transform="translate(0)">
	<g id="Group_105" transform="translate(0 10.654)">
		<path id="Path_474" fill="#FEBC12" d="M9.103,7.585c-0.7-0.182-1.362-0.313-1.993-0.533c-0.492-0.174-1.105-0.367-1.1-1.013
			c0.005-0.645,0.587-0.86,1.1-1.014c0.683-0.201,1.378-0.36,2.08-0.477c0.269-0.014,0.49-0.217,0.527-0.483
			c0.119-0.502,0.265-0.999,0.436-1.486c0.083-0.498,0.553-0.835,1.051-0.752c0.064,0.011,0.128,0.028,0.189,0.053
			c0.976,0.225,1.988,0.245,2.972,0.06c0.839-0.165,1.216,0.1,1.508,0.9c0.136,0.33,0.241,0.671,0.315,1.02
			c0.085,0.522,0.4,0.657,0.872,0.74c0.735,0.132,1.459,0.316,2.168,0.551c0.4,0.132,0.888,0.4,0.785,0.882
			c-0.125,0.377-0.4,0.686-0.761,0.85c-0.753,0.285-1.521,0.529-2.3,0.73c0.46,0.371,0.67,0.973,0.543,1.55
			c-0.127,0.325-0.295,0.632-0.5,0.913c-0.182,0.293-0.408,0.561-0.575,0.859c-0.423,0.761-0.792,1.552-1.24,2.295
			c-0.841,1.4-3.558,1.308-4.363-0.036c-0.455-0.761-0.813-1.578-1.218-2.368c-0.081-0.214-0.195-0.414-0.34-0.59
			C8.291,9.346,8.236,8.634,9.103,7.585z M13.053,7.692c-0.838,0-1.676,0.005-2.515,0c-0.456,0-1.256,0.763-1.192,1.213
			c0.064,0.213,0.178,0.406,0.333,0.566c0.185,0.184,0.355,0.383,0.509,0.594c0.44,0.849,0.809,1.734,1.272,2.57
			c0.649,0.848,1.862,1.01,2.71,0.361c0.148-0.114,0.28-0.249,0.39-0.4c0.439-0.851,0.821-1.729,1.251-2.582
			c0.101-0.205,0.256-0.379,0.449-0.5c0.334-0.147,0.485-0.537,0.338-0.871c-0.04-0.091-0.101-0.172-0.177-0.236
			c-0.126-0.118-0.316-0.227-0.351-0.371c-0.082-0.337-0.292-0.343-0.561-0.34C14.691,7.699,13.873,7.693,13.053,7.692L13.053,7.692
			z"/>
		<path id="Path_475" fill="#FEBC12" d="M9.9,14.413c0.29-0.088,0.586-0.15,0.887-0.188c0.195-0.004,0.384,0.067,0.527,0.201
			c0.551,0.875,1.707,1.137,2.582,0.586c0.193-0.122,0.362-0.277,0.5-0.461c0.244-0.303,0.651-0.423,1.021-0.299
			c2.975,0.787,5.2,2.41,6.052,5.508c0.145,0.728,0.235,1.465,0.271,2.207h-9.136l0.646-0.393L9.9,14.413z"/>
		<path id="Path_476" fill="#FEBC12" d="M12.635,21.374l-0.786,0.363L4.134,5.251c-0.567,0.24-1.083,0.485-1.617,0.678
			C1.718,6.21,0.829,5.96,0.293,5.304C-0.085,4.841-0.066,4.58,0.382,4.191C0.229,3.677-0.291,3.214,0.217,2.477l1.224,1.467
			c-0.035-0.716-0.726-1.241-0.17-1.913C1.503,2.205,1.719,2.399,1.916,2.61c0.147,0.246,0.311,0.482,0.49,0.706
			c0.084-0.6-0.571-1.092-0.174-1.7c0.817-0.029,0.776,0.872,1.381,1.3C3.564,2.2,2.913,1.722,3.299,1.085
			c0.8,0.011,0.795,0.865,1.376,1.2l-0.4-1.8c0.942,0.078,0.961,0.875,1.446,1.4c0.09-0.724-0.7-1.227-0.252-1.886
			C6,0.059,6.199,0.464,6.425,0.877c0.141,0.184,0.336,0.318,0.559,0.382c0.668,0.736,0.612,1.875-0.125,2.542
			C6.732,3.917,6.588,4.014,6.433,4.089c-0.472,0.281-0.971,0.516-1.5,0.793L12.635,21.374z"/>
		<path id="Path_477" fill="#FEBC12" d="M4.308,21.964C4.084,19.1,5.64,16.392,8.226,15.141l3.2,6.822H4.308z"/>
		<path id="Path_478" fill="#FFFFFF" d="M13.052,7.692c0.82,0,1.641,0.006,2.461,0c0.269,0,0.48,0,0.561,0.34
			c0.035,0.145,0.225,0.252,0.351,0.371c0.278,0.236,0.312,0.652,0.076,0.93c-0.064,0.076-0.146,0.137-0.237,0.178
			c-0.193,0.121-0.348,0.295-0.449,0.5c-0.43,0.854-0.812,1.732-1.251,2.582c-0.626,0.863-1.835,1.057-2.7,0.43
			c-0.151-0.109-0.286-0.242-0.4-0.391c-0.463-0.834-0.833-1.722-1.272-2.57c-0.153-0.212-0.323-0.41-0.509-0.594
			C9.529,9.307,9.415,9.114,9.35,8.901c-0.063-0.451,0.736-1.217,1.192-1.213C11.376,7.697,12.214,7.692,13.052,7.692z"/>
	</g>
	<g id="Group_106" transform="translate(13.593)">
		<path id="Path_479" fill="#FEBC12" d="M18.594,15.238c-0.215,0.263-0.386,0.56-0.504,0.878c-0.601,1.175-1.136,2.392-1.813,3.524
			c-1.2,2-5.242,2.135-6.494,0.055c-0.667-1.106-1.216-2.284-1.845-3.416c-0.249-0.447-0.586-0.844-0.856-1.28
			c-0.306-0.419-0.557-0.876-0.747-1.359c-0.189-0.86,0.124-1.753,0.808-2.307c-1.161-0.3-2.305-0.663-3.427-1.087
			C3.178,10,2.767,9.542,2.582,8.981C2.43,8.267,3.156,7.865,3.751,7.669c1.055-0.35,2.133-0.623,3.227-0.819
			c0.7-0.125,1.172-0.324,1.3-1.1c0.109-0.52,0.266-1.027,0.469-1.518c0.434-1.2,1-1.59,2.244-1.345
			c1.465,0.276,2.971,0.245,4.424-0.09c0.698-0.278,1.489,0.063,1.767,0.761c0.036,0.091,0.063,0.186,0.078,0.282
			c0.256,0.726,0.473,1.464,0.649,2.212c0.056,0.396,0.384,0.698,0.784,0.719c1.047,0.173,2.082,0.41,3.1,0.709
			c0.76,0.228,1.633,0.556,1.635,1.508c0,0.952-0.912,1.249-1.645,1.507c-0.939,0.33-1.93,0.524-2.967,0.795
			C20.094,12.847,20.011,13.912,18.594,15.238z M9.265,11.447c-0.4,0-0.714,0-0.835,0.505c-0.052,0.214-0.335,0.376-0.522,0.552
			c-0.414,0.352-0.463,0.972-0.112,1.386c0.096,0.113,0.216,0.203,0.352,0.262c0.288,0.184,0.519,0.444,0.668,0.751
			c0.64,1.271,1.209,2.579,1.862,3.844c0.8,1.541,3.757,1.619,4.621,0.061c0.688-1.243,1.238-2.563,1.894-3.826
			c0.228-0.315,0.481-0.61,0.758-0.884c0.231-0.237,0.402-0.525,0.5-0.842c0.095-0.67-1.101-1.812-1.774-1.806
			c-1.246,0.011-2.495,0-3.742,0C11.707,11.447,10.486,11.458,9.265,11.447z"/>
		<path id="Path_480" fill="#FEBC12" d="M17.62,21.454c-0.431-0.132-0.872-0.225-1.319-0.279c-0.291-0.007-0.573,0.102-0.785,0.301
			c-1.426,1.645-3.036,1.755-4.584,0.188c-0.364-0.451-0.97-0.628-1.52-0.443c-4.428,1.173-7.741,3.589-9.008,8.199
			c-0.215,1.084-0.349,2.182-0.4,3.285h13.6l-0.962-0.584L17.62,21.454z"/>
		<path id="Path_481" fill="#FEBC12" d="M13.547,31.813l1.17,0.541L26.201,7.815c0.844,0.357,1.612,0.721,2.407,1.009
			c1.188,0.417,2.513,0.045,3.31-0.93c0.563-0.689,0.534-1.078-0.133-1.657c0.227-0.765,1-1.454,0.246-2.551L30.209,5.87
			c0.053-1.065,1.081-1.847,0.252-2.847c-0.344,0.259-0.666,0.547-0.96,0.862c-0.219,0.367-0.462,0.718-0.729,1.051
			c-0.125-0.891,0.849-1.625,0.259-2.524c-1.217-0.043-1.156,1.3-2.055,1.932c0.074-1.064,1.037-1.777,0.468-2.725
			c-1.194,0.017-1.183,1.287-2.048,1.782l0.6-2.678c-1.4,0.116-1.431,1.3-2.152,2.085C23.711,1.731,24.879,0.983,24.219,0
			c-0.791,0.089-1.086,0.693-1.424,1.306c-0.207,0.275-0.499,0.477-0.83,0.573c-0.995,1.092-0.916,2.783,0.176,3.777
			c0.192,0.176,0.41,0.322,0.645,0.435c0.7,0.419,1.446,0.768,2.23,1.18L13.547,31.813z"/>
		<path id="Path_482" fill="#FEBC12" d="M25.942,32.686c0.332-4.262-1.982-8.293-5.831-10.152l-4.764,10.152H25.942z"/>
		<path id="Path_483" fill="#FFFFFF" d="M12.927,11.449c-1.221,0-2.442,0.009-3.663-0.005c-0.4,0-0.714,0-0.835,0.505
			c-0.052,0.214-0.335,0.376-0.522,0.552c-0.414,0.352-0.463,0.972-0.112,1.386C7.891,14,8.011,14.089,8.147,14.149
			c0.288,0.184,0.519,0.444,0.668,0.751c0.64,1.271,1.209,2.579,1.862,3.845c0.8,1.539,3.757,1.617,4.62,0.059
			c0.689-1.242,1.239-2.562,1.895-3.825c0.229-0.315,0.481-0.61,0.758-0.884c0.23-0.237,0.402-0.525,0.5-0.842
			c0.094-0.67-1.1-1.812-1.773-1.806C15.422,11.46,14.175,11.449,12.927,11.449z"/>
	</g>
	<g id="Group_107" transform="translate(35.872 12.703)">
		<path id="Path_484" fill="#FEBC12" d="M11.375,9.324c-0.132,0.161-0.236,0.343-0.309,0.537c-0.369,0.72-0.695,1.465-1.109,2.157
			c-0.896,1.105-2.518,1.274-3.623,0.379c-0.128-0.104-0.245-0.219-0.352-0.346c-0.407-0.678-0.744-1.399-1.129-2.09
			C4.702,9.689,4.496,9.446,4.331,9.178C4.145,8.922,3.99,8.643,3.874,8.346C3.758,7.821,3.949,7.274,4.369,6.934
			C3.657,6.752,2.956,6.53,2.27,6.27C1.94,6.12,1.689,5.839,1.575,5.497C1.483,5.059,1.926,4.813,2.29,4.696
			c0.646-0.213,1.306-0.381,1.976-0.5c0.43-0.076,0.717-0.2,0.795-0.674c0.066-0.318,0.162-0.629,0.286-0.929
			C5.613,1.858,5.956,1.62,6.72,1.77c0.896,0.169,1.818,0.15,2.707-0.055c0.427-0.17,0.911,0.038,1.081,0.465
			c0.022,0.056,0.039,0.115,0.049,0.174c0.156,0.444,0.29,0.896,0.399,1.354c0.034,0.242,0.235,0.427,0.479,0.44
			c0.64,0.106,1.272,0.251,1.895,0.435c0.465,0.139,1,0.34,1,0.922c0,0.584-0.559,0.764-1.006,0.922
			c-0.575,0.201-1.18,0.322-1.816,0.486c0.64,0.513,0.742,1.447,0.23,2.086C11.636,9.127,11.514,9.237,11.375,9.324z M5.668,7.003
			c-0.245,0-0.438,0-0.511,0.309c-0.032,0.131-0.2,0.23-0.319,0.337c-0.253,0.214-0.285,0.593-0.07,0.845
			c0.059,0.07,0.133,0.127,0.217,0.163c0.177,0.112,0.318,0.272,0.41,0.46c0.392,0.777,0.739,1.578,1.139,2.352
			c0.569,0.789,1.67,0.966,2.459,0.396c0.139-0.102,0.264-0.223,0.367-0.359c0.423-0.761,0.759-1.568,1.16-2.34
			c0.139-0.193,0.295-0.375,0.463-0.541c0.14-0.146,0.242-0.322,0.301-0.516c0.058-0.41-0.67-1.109-1.086-1.105
			c-0.764,0.008-1.527,0-2.29,0C7.159,7.006,6.416,7.01,5.668,7.003L5.668,7.003z"/>
		<path id="Path_485" fill="#FEBC12" d="M10.782,13.128c-0.265-0.08-0.534-0.138-0.808-0.17c-0.178-0.006-0.351,0.061-0.48,0.182
			c-0.502,0.797-1.555,1.035-2.352,0.533c-0.176-0.11-0.33-0.252-0.455-0.418c-0.223-0.277-0.594-0.385-0.93-0.272
			c-2.71,0.718-4.736,2.2-5.512,5.017C0.114,18.661,0.032,19.333,0,20.008h8.32l-0.588-0.357L10.782,13.128z"/>
		<path id="Path_486" fill="#FEBC12" d="M8.29,19.467l0.716,0.33l7.027-15.016c0.516,0.219,0.986,0.441,1.473,0.618
			c0.729,0.256,1.538,0.028,2.026-0.569c0.344-0.422,0.327-0.658-0.081-1.014c0.139-0.468,0.611-0.89,0.15-1.561l-1.115,1.336
			c0.033-0.652,0.662-1.13,0.154-1.742c-0.211,0.159-0.408,0.335-0.588,0.528c-0.134,0.224-0.283,0.439-0.445,0.643
			c-0.076-0.545,0.52-0.994,0.158-1.545c-0.744-0.026-0.707,0.794-1.258,1.182c0.045-0.652,0.635-1.087,0.286-1.668
			C16.065,1,16.07,1.778,15.541,2.081l0.363-1.639c-0.857,0.071-0.875,0.8-1.316,1.276C14.506,1.059,15.221,0.601,14.817,0
			c-0.482,0.054-0.664,0.424-0.871,0.8c-0.127,0.169-0.305,0.292-0.508,0.351c-0.609,0.667-0.563,1.703,0.105,2.311
			c0.118,0.107,0.25,0.197,0.395,0.266c0.43,0.256,0.885,0.47,1.364,0.722L8.29,19.467z"/>
		<path id="Path_487" fill="#FEBC12" d="M15.874,20.001c0.204-2.607-1.213-5.074-3.568-6.213l-2.913,6.213H15.874z"/>
		<path id="Path_488" fill="#FFFFFF" d="M7.91,7.006c-0.747,0-1.494,0.006-2.241,0c-0.245,0-0.437,0-0.511,0.309
			c-0.032,0.131-0.2,0.23-0.319,0.337C4.586,7.866,4.555,8.245,4.768,8.498c0.06,0.069,0.135,0.126,0.219,0.163
			C5.162,8.772,5.304,8.932,5.395,9.12c0.393,0.778,0.74,1.578,1.141,2.352c0.569,0.789,1.67,0.967,2.459,0.396
			c0.139-0.102,0.264-0.222,0.367-0.359c0.423-0.76,0.759-1.567,1.16-2.34c0.139-0.193,0.295-0.374,0.463-0.541
			c0.14-0.146,0.242-0.322,0.301-0.516c0.058-0.41-0.67-1.109-1.086-1.105C9.438,7.01,8.674,7.006,7.91,7.006z"/>
	</g>
</g>
</svg>
