<svg id="reward-iocn" xmlns="http://www.w3.org/2000/svg" width="47.738" height="65" viewBox="0 0 47.738 65">
  <path id="Path_574" data-name="Path 574" d="M32.264,46.112a18.45,18.45,0,0,1-2.1-.747,2.91,2.91,0,0,0-3.876.793,8.071,8.071,0,0,1-1.217,1.107,1.7,1.7,0,0,1-2.387,0,13.935,13.935,0,0,1-1.544-1.414,2.547,2.547,0,0,0-3.125-.646c-.571.247-1.158.463-1.751.651a1.81,1.81,0,0,1-2.576-1.071c-.3-.575-.549-1.174-.8-1.773a2.51,2.51,0,0,0-2.566-1.675,15.507,15.507,0,0,1-2.238-.122A1.622,1.622,0,0,1,6.5,39.541C6.418,38.7,6.4,37.847,6.366,37A2.115,2.115,0,0,0,5.08,35.048c-.653-.31-1.322-.587-1.971-.9-1.384-.677-1.667-1.377-1.155-2.849.188-.541.4-1.075.618-1.6a2.522,2.522,0,0,0-.611-3.006A16.981,16.981,0,0,1,.5,25.081,1.674,1.674,0,0,1,.495,22.7a22,22,0,0,1,1.558-1.717,2.4,2.4,0,0,0,.566-2.747c-.3-.766-.593-1.536-.817-2.325a1.534,1.534,0,0,1,.783-1.975A18.842,18.842,0,0,1,4.738,12.9a2.436,2.436,0,0,0,1.656-2.42c0-.7.039-1.4.092-2.094A1.738,1.738,0,0,1,8.227,6.509a12.482,12.482,0,0,1,1.943-.073,2.631,2.631,0,0,0,2.781-1.822,14.843,14.843,0,0,1,.771-1.7A1.794,1.794,0,0,1,16.2,1.882a8.235,8.235,0,0,1,1.328.5A2.94,2.94,0,0,0,21.469,1.6,7.6,7.6,0,0,1,22.75.456a1.614,1.614,0,0,1,2.257.01,19.6,19.6,0,0,1,1.718,1.557,2.448,2.448,0,0,0,2.876.585c.645-.265,1.3-.522,1.961-.731a1.781,1.781,0,0,1,2.432.981,10.18,10.18,0,0,1,.675,1.5,2.823,2.823,0,0,0,3.139,2.086,8.54,8.54,0,0,1,1.644.052c1.258.169,1.726.695,1.812,1.97q.075,1.121.1,2.244a2.185,2.185,0,0,0,1.372,2.053c.722.338,1.464.638,2.166,1.014a1.7,1.7,0,0,1,.984,2.352c-.22.739-.506,1.459-.787,2.178a2.293,2.293,0,0,0,.537,2.613c.5.523,1.017,1.034,1.475,1.593a1.822,1.822,0,0,1,0,2.744c-.445.538-.937,1.037-1.425,1.537a2.374,2.374,0,0,0-.566,2.744c.293.74.579,1.488.8,2.252a1.574,1.574,0,0,1-.831,2.084,17.025,17.025,0,0,1-2.022.963,2.461,2.461,0,0,0-1.722,2.451c0,.723-.037,1.448-.1,2.169a1.667,1.667,0,0,1-1.657,1.776,14.972,14.972,0,0,1-2.164.109,2.546,2.546,0,0,0-2.609,1.729,20.537,20.537,0,0,1-.992,2.092A1.72,1.72,0,0,1,32.264,46.112ZM10.22,23.87A13.652,13.652,0,1,0,23.957,10.207,13.663,13.663,0,0,0,10.22,23.87Z" transform="translate(0.001 -0.001)" fill="#ffd60c" fill-rule="evenodd"/>
  <path id="Path_575" data-name="Path 575" d="M33,298.287q-3.1,5.447-6.183,10.866c-.629,1.105-1.251,2.214-1.9,3.311-.459.782-.9.774-1.344-.028-1.116-2-2.246-4-3.3-6.035a1.3,1.3,0,0,0-1.455-.789c-2.217.132-4.439.178-6.659.245-1.093.033-1.312-.343-.769-1.3,2.328-4.1,4.675-8.184,6.977-12.3a.935.935,0,0,1,1.185-.451,1.258,1.258,0,0,1,.718.567c.421.732.7,1.55,1.161,2.254a3.866,3.866,0,0,0,4.425,1.71,16.973,16.973,0,0,0,2.183-.764.852.852,0,0,1,1.052.2,16.981,16.981,0,0,0,2.116,1.77A9.551,9.551,0,0,0,33,298.287Z" transform="translate(-9.44 -248.046)" fill="#ffd60c" fill-rule="evenodd"/>
  <path id="Path_576" data-name="Path 576" d="M160.273,298.232c1.8-.152,2.984-1.3,4.137-2.49a.757.757,0,0,1,.924-.174,16.9,16.9,0,0,0,2.92.874,3.7,3.7,0,0,0,3.884-1.982c.408-.681.673-1.446,1.066-2.138a1.21,1.21,0,0,1,.7-.5.733.733,0,0,1,.932.371c2.363,4.194,4.76,8.37,7.136,12.557.417.734.168,1.144-.693,1.122q-3.557-.094-7.112-.247a.964.964,0,0,0-1.054.582c-1.112,2.092-2.27,4.16-3.423,6.229-.452.812-.9.836-1.344.059q-3.992-6.984-7.962-13.981A2.519,2.519,0,0,1,160.273,298.232Z" transform="translate(-136.259 -248.063)" fill="#ffd60c" fill-rule="evenodd"/>
</svg>
