<?xml version="1.0" encoding="utf-8"?>
<!-- Generator: Adobe Illustrator 16.0.0, SVG Export Plug-In . SVG Version: 6.00 Build 0)  -->
<!DOCTYPE svg PUBLIC "-//W3C//DTD SVG 1.1//EN" "http://www.w3.org/Graphics/SVG/1.1/DTD/svg11.dtd">
<svg version="1.1" id="Layer_1" xmlns="http://www.w3.org/2000/svg" xmlns:xlink="http://www.w3.org/1999/xlink" x="0px" y="0px"
	 width="399.943px" height="399.942px" viewBox="0 0 399.943 399.942" enable-background="new 0 0 399.943 399.942"
	 xml:space="preserve">
<path fill-rule="evenodd" clip-rule="evenodd" d="M0.043,199.432C0.041,153.276-0.02,107.12,0.064,60.963
	C0.113,34.325,15.615,11.869,40.221,3.55c6.504-2.199,13.682-3.355,20.555-3.371C153.588-0.036,246.4-0.038,339.213,0.073
	c34.357,0.041,60.588,26.157,60.635,60.445c0.127,92.979,0.129,185.958-0.002,278.937c-0.049,34.055-26.199,60.322-60.188,60.375
	c-93.146,0.148-186.291,0.152-279.438-0.002C26.248,399.773,0.195,373.476,0.082,339.4C-0.074,292.746,0.043,246.087,0.043,199.432z
	 M39.893,199.982c0,45.652-0.012,91.307,0.006,136.959c0.006,15.369,7.686,23.084,23.008,23.086
	c91.305,0.014,182.611,0.012,273.918,0.002c15.621-0.002,23.211-7.656,23.213-23.385c0.008-91.139,0.008-182.278,0-273.417
	c-0.002-15.715-7.594-23.335-23.26-23.337c-91.139-0.01-182.279-0.009-273.418-0.001c-15.979,0.001-23.461,7.545-23.465,23.634
	C39.887,109.009,39.893,154.496,39.893,199.982z"/>
<path fill-rule="evenodd" clip-rule="evenodd" d="M100.271,80.26c13.279,0,26.195,0,38.332,0
	c2.217,11.066,3.586,21.987,6.682,32.394c4.57,15.363,13.434,28.222,26.725,37.562c20.393,14.329,42.211,12.973,60.781-3.738
	c18.033-16.228,25.67-37.156,27.049-60.83c0.096-1.648,0.193-3.296,0.311-5.275c13.18,0,26.221,0,40.615,0
	c-1.67,11.298-2.545,22.417-5.049,33.154c-6.744,28.905-21.668,52.769-45.951,70.318c-32.797,23.699-79.428,19.98-109.178-7.461
	C112.797,150.751,100.002,113.813,100.271,80.26z"/>
</svg>
