<svg xmlns="http://www.w3.org/2000/svg" width="30.943" height="22.5" viewBox="0 0 30.943 22.5">
  <g id="Bakery" transform="translate(0.25 -70.75)">
    <path id="Path_17388" data-name="Path 17388" d="M241.892,131a.892.892,0,0,0-.892.892v2.378a.892.892,0,0,0,1.784,0v-2.378A.892.892,0,0,0,241.892,131Z" transform="translate(-226.67 -56.432)" fill="#212121" stroke="#fff" stroke-width="0.4"/>
    <path id="Path_17389" data-name="Path 17389" d="M292.632,131.4a.892.892,0,1,0-1.484.989l1.189,1.784a.892.892,0,0,0,1.484-.989Z" transform="translate(-273.695 -56.431)" fill="#212121" stroke="#fff" stroke-width="0.4"/>
    <path id="Path_17390" data-name="Path 17390" d="M173.574,131.149a.892.892,0,0,0-1.237.247l-1.189,1.784a.892.892,0,1,0,1.484.989l1.189-1.784A.892.892,0,0,0,173.574,131.149Z" transform="translate(-160.83 -56.431)" fill="#212121" stroke="#fff" stroke-width="0.4"/>
    <path id="Path_17391" data-name="Path 17391" d="M30.443,82.595a3.276,3.276,0,0,0-2.423-3.159A8.393,8.393,0,0,0,24.169,73.6,15.775,15.775,0,0,0,15.222,71a15.775,15.775,0,0,0-8.948,2.6,8.393,8.393,0,0,0-3.851,5.838A3.271,3.271,0,0,0,2.617,85.8l1.068,4.273A3.859,3.859,0,0,0,7.435,93H23.008a3.859,3.859,0,0,0,3.75-2.927L27.826,85.8A3.276,3.276,0,0,0,30.443,82.595ZM5.416,89.64l-.944-3.775H8.488l.669,5.351H7.435A2.078,2.078,0,0,1,5.416,89.64Zm14.742-3.775-.669,5.351H16.114V85.865ZM14.33,91.216H10.955l-.669-5.351H14.33Zm10.7-1.576a2.078,2.078,0,0,1-2.019,1.576H21.286l.669-5.351h4.016Zm2.145-5.559H3.27a1.486,1.486,0,0,1,0-2.973.892.892,0,0,0,.892-.892,6.423,6.423,0,0,1,3.13-5.154,13.983,13.983,0,0,1,7.929-2.279,13.983,13.983,0,0,1,7.929,2.279,6.423,6.423,0,0,1,3.13,5.154.892.892,0,0,0,.892.892,1.486,1.486,0,1,1,0,2.973Z" transform="translate(0 0)" fill="#212121" stroke="#fff" stroke-width="0.5"/>
  </g>
</svg>
