<svg xmlns="http://www.w3.org/2000/svg" width="26.3" height="26.3" viewBox="0 0 26.3 26.3">
  <g id="canned-food" transform="translate(-0.85 -0.85)">
    <path id="Path_17406" data-name="Path 17406" d="M10.1,33.516c1.2,0,2.1-.541,2.1-1.258S11.292,31,10.1,31,8,31.541,8,32.258,8.9,33.516,10.1,33.516Zm0-1.677c.812,0,1.258.315,1.258.419s-.446.419-1.258.419-1.258-.315-1.258-.419S9.285,31.839,10.1,31.839Z" transform="translate(-4.065 -17.419)" fill="#212121" stroke="#212121" stroke-width="0.3"/>
    <path id="Path_17407" data-name="Path 17407" d="M20.38,51.342l-1.006-.755a3.015,3.015,0,0,0-3.522,0l-.595.446A2.157,2.157,0,0,0,13.419,50a.42.42,0,0,0-.4.552l.375,1.125L13.021,52.8a.419.419,0,0,0,.4.552,2.157,2.157,0,0,0,1.838-1.033l.594.446a2.935,2.935,0,0,0,3.522,0l1.006-.755a.42.42,0,0,0,0-.671Zm-6.325,1.012.181-.544a.417.417,0,0,0,0-.265L14.055,51a1.326,1.326,0,0,1,.6.677A1.329,1.329,0,0,1,14.055,52.354ZM18.87,52.1a2.152,2.152,0,0,1-2.516,0l-.559-.419.559-.419a2.152,2.152,0,0,1,2.516,0l.559.419Z" transform="translate(-6.967 -28.452)" fill="#212121" stroke="#212121" stroke-width="0.3"/>
    <path id="Path_17408" data-name="Path 17408" d="M19.871,1c-2.466,0-7.129.438-7.129,2.1v8.962A27.428,27.428,0,0,0,9.806,11.9C5.43,11.9,1,12.911,1,14.839v9.226C1,25.992,5.43,27,9.806,27s8.806-1.008,8.806-2.935v-.452c.415.019.835.032,1.258.032,2.466,0,7.129-.438,7.129-2.1V3.1C27,1.438,22.337,1,19.871,1Zm0,.839c4.086,0,6.29.893,6.29,1.258s-2.2,1.258-6.29,1.258-6.29-.893-6.29-1.258S15.785,1.839,19.871,1.839ZM9.806,12.742c4.936,0,7.968,1.221,7.968,2.1s-3.032,2.1-7.968,2.1-7.968-1.221-7.968-2.1S4.87,12.742,9.806,12.742Zm8.806,2.1a1.476,1.476,0,0,0-.534-1.079,1.649,1.649,0,0,1,.744-.179h.419a1.65,1.65,0,0,1,.92.278l.211.141a2.5,2.5,0,0,0,2.77,0l.06-.04a3.358,3.358,0,0,1-3.332,2.975,3.317,3.317,0,0,1-1.258-.249ZM22.678,13.3a1.685,1.685,0,0,1-1.84,0l-.211-.141a2.488,2.488,0,0,0-1.385-.419h-.419a2.489,2.489,0,0,0-1.385.419l-.112.074a6.459,6.459,0,0,0-.741-.337,3.354,3.354,0,0,1,6.583.076ZM3.935,25.43V19.588a22.545,22.545,0,0,0,5.871.7,22.541,22.541,0,0,0,5.871-.7V25.43a20.744,20.744,0,0,1-5.871.732A20.744,20.744,0,0,1,3.935,25.43Zm12.581-.3V19.019a.42.42,0,0,0-.554-.4,20.349,20.349,0,0,1-6.155.829,20.355,20.355,0,0,1-6.155-.829.419.419,0,0,0-.379.062.431.431,0,0,0-.175.348v6.1c-.816-.347-1.258-.73-1.258-1.063v-7.9c1.488,1.06,4.742,1.609,7.968,1.609s6.479-.549,7.968-1.609v7.9c0,.333-.442.716-1.258,1.063Zm3.355-2.322c-.424,0-.844-.013-1.258-.033V19.419c.415.019.835.032,1.258.032,1.82,0,4.835-.239,6.29-1.031v3.128C26.161,21.914,23.957,22.806,19.871,22.806Zm0-4.194c-.424,0-.844-.013-1.258-.033v-1a4.191,4.191,0,1,0-2.824-4.945,16.473,16.473,0,0,0-2.208-.465V7.517c1.456.792,4.47,1.031,6.29,1.031s4.835-.239,6.29-1.031v9.838C26.161,17.72,23.957,18.613,19.871,18.613Zm0-10.9c-4.086,0-6.29-.893-6.29-1.258V4.162c1.456.792,4.47,1.031,6.29,1.031s4.835-.239,6.29-1.031V6.452C26.161,6.817,23.957,7.71,19.871,7.71Z" fill="#212121" stroke="#212121" stroke-width="0.3"/>
  </g>
</svg>
