<svg xmlns="http://www.w3.org/2000/svg" width="20.333" height="26.4" viewBox="0 0 20.333 26.4">
  <g id="Dairy_eggs" data-name="Dairy &amp; eggs" transform="translate(-71.8 -15.8)">
    <path id="Path_17395" data-name="Path 17395" d="M72.867,39.833v-10.4a10.065,10.065,0,0,1,.819-3.988l.893-2.083c.076-.177.148-.36.216-.544a8.2,8.2,0,0,1,3.217.065,8.964,8.964,0,0,0,3.391.1c.049.127.1.253.154.379l.893,2.083.8-.341-.893-2.083c-.095-.222-.182-.448-.26-.671a10.1,10.1,0,0,1-.549-2.884h.424a.433.433,0,0,0,.433-.433V17.3A1.3,1.3,0,0,0,81.1,16H75.033a1.3,1.3,0,0,0-1.3,1.3v1.733a.433.433,0,0,0,.433.433h.424a10.106,10.106,0,0,1-.532,2.833c-.084.245-.177.487-.278.721L72.889,25.1A10.928,10.928,0,0,0,72,29.433v10.4A2.169,2.169,0,0,0,74.167,42H81.1v-.867H74.167A1.3,1.3,0,0,1,72.867,39.833ZM74.6,17.3a.434.434,0,0,1,.433-.433H81.1a.434.434,0,0,1,.433.433v1.3H74.6Zm6.075,2.167a10.956,10.956,0,0,0,.443,2.683,8.1,8.1,0,0,1-2.92-.112,9.068,9.068,0,0,0-3.112-.14,10.964,10.964,0,0,0,.371-2.431Z" transform="translate(0 0)" fill="#212121" stroke="#212121" stroke-width="0.4"/>
    <path id="Path_17397" data-name="Path 17397" d="M243.267,202.167c0-1.423-2.834-2.167-5.633-2.167s-5.633.744-5.633,2.167a1.04,1.04,0,0,0,.012.156l1.29,13.321a.433.433,0,0,0,.431.39h7.8a.433.433,0,0,0,.431-.39l1.29-13.32A1.046,1.046,0,0,0,243.267,202.167Zm-1.181,3.548-.219.073a6.87,6.87,0,0,1-4.167.063,7.76,7.76,0,0,0-4.465,0l-.039.012-.214-2.42a12.6,12.6,0,0,0,9.3,0Zm-4.452-4.848c3.065,0,4.744.848,4.766,1.291l0,.054c-.108.452-1.779,1.254-4.761,1.254s-4.653-.8-4.761-1.254l0-.054C232.889,201.714,234.569,200.867,237.633,200.867Zm3.508,14.3h-7.016l-.848-8.424.206-.062a6.924,6.924,0,0,1,3.967,0,7.728,7.728,0,0,0,4.544-.024Z" transform="translate(-151.333 -174.033)" fill="#212121" stroke="#212121" stroke-width="0.4"/>
  </g>
</svg>
