<svg xmlns="http://www.w3.org/2000/svg" width="21.138" height="22.5" viewBox="0 0 21.138 22.5">
  <g id="Organic" transform="translate(0.259 0.25)">
    <path id="Path_17404" data-name="Path 17404" d="M20.527,6.294,18.763,4.53a1.347,1.347,0,0,0-.638-.359,1.007,1.007,0,0,0-.056-.919,1.012,1.012,0,0,0,.486-.863V1.011A1.012,1.012,0,0,0,17.543,0H3.077A1.012,1.012,0,0,0,2.066,1.011V2.389a1.012,1.012,0,0,0,.485.863,1.008,1.008,0,0,0-.056.919,1.347,1.347,0,0,0-.638.359L.093,6.294a.322.322,0,0,0,.228.55,2.591,2.591,0,0,1,.72.09,4.817,4.817,0,0,0-.584,3.624l2.4,10.133A1.694,1.694,0,0,0,4.511,22h11.6a1.694,1.694,0,0,0,1.654-1.308l2.4-10.133a4.817,4.817,0,0,0-.584-3.624,2.6,2.6,0,0,1,.72-.09.322.322,0,0,0,.228-.55ZM2.71,1.011A.367.367,0,0,1,3.077.644H17.543a.367.367,0,0,1,.367.367V2.389c0,.2-.344,1.176-.344,1.378a.367.367,0,0,1-.367.367H3.421a.367.367,0,0,1-.367-.367c0-.2-.344-1.176-.344-1.378Zm16.826,9.4-2.4,10.133a1.052,1.052,0,0,1-1.027.812H4.511a1.052,1.052,0,0,1-1.027-.812l-2.4-10.133A4.17,4.17,0,0,1,1.634,7.2c.06.036.12.073.181.111a3.077,3.077,0,0,0,1.834.565,3.078,3.078,0,0,0,1.834-.565,2.436,2.436,0,0,1,1.494-.468,2.437,2.437,0,0,1,1.5.468,3.08,3.08,0,0,0,1.835.565,3.078,3.078,0,0,0,1.834-.565,2.621,2.621,0,0,1,2.99,0,3.263,3.263,0,0,0,3.671,0l.182-.111a4.17,4.17,0,0,1,.551,3.208ZM18.463,6.765a2.623,2.623,0,0,1-2.991,0,3.261,3.261,0,0,0-3.67,0,2.436,2.436,0,0,1-1.495.468,2.438,2.438,0,0,1-1.5-.468A3.08,3.08,0,0,0,6.978,6.2a3.078,3.078,0,0,0-1.834.565,2.436,2.436,0,0,1-1.494.468,2.435,2.435,0,0,1-1.494-.468,3.284,3.284,0,0,0-1.125-.5L2.313,4.986a.707.707,0,0,1,.5-.208h2.06l-.519.793a.322.322,0,1,0,.539.353l.75-1.146h7.191l.19.449a.322.322,0,0,0,.594-.251l-.084-.2H17.8a.706.706,0,0,1,.5.208L19.59,6.268a3.294,3.294,0,0,0-1.126.5Zm0,0" transform="translate(0)" fill="#212121" stroke="#212121" stroke-width="0.5"/>
    <path id="Path_17405" data-name="Path 17405" d="M106.991,464.938H96.484a.324.324,0,0,0,0,.645h10.506a.324.324,0,0,0,0-.645Zm0,0" transform="translate(-91.427 -446.61)" fill="#212121" stroke="#212121" stroke-width="0.5"/>
  </g>
</svg>
