<?xml version="1.0" encoding="utf-8"?>
<!-- Generator: Adobe Illustrator 16.0.0, SVG Export Plug-In . SVG Version: 6.00 Build 0)  -->
<!DOCTYPE svg PUBLIC "-//W3C//DTD SVG 1.1//EN" "http://www.w3.org/Graphics/SVG/1.1/DTD/svg11.dtd">
<svg version="1.1" id="Layer_1" xmlns="http://www.w3.org/2000/svg" xmlns:xlink="http://www.w3.org/1999/xlink" x="0px" y="0px"
	 width="237.755px" height="237.84px" viewBox="0 0 237.755 237.84" enable-background="new 0 0 237.755 237.84"
	 xml:space="preserve">
<path fill-rule="evenodd" clip-rule="evenodd" d="M159.426,172.883c-4.219,2.777-8.153,5.53-12.24,8.034
	C93.269,213.946,20.46,185.161,3.692,124.213C-12.152,66.623,24.59,9.945,83.418,1.055c48.358-7.308,98.19,23.896,109.232,76.91
	c5.886,28.258-0.331,54.221-17.221,77.53c-2.398,3.311-2.152,5.023,0.647,7.792c19.304,19.087,38.402,38.38,57.637,57.536
	c3.531,3.518,5.301,7.365,3.019,12.09c-1.888,3.906-5.521,5.676-9.553,4.635c-2.707-0.699-5.376-2.619-7.421-4.641
	c-18.947-18.743-37.753-37.629-56.606-56.466C161.992,175.281,160.779,174.172,159.426,172.883z M97.464,18.509
	c-43.314-0.1-78.811,35.075-78.836,78.125c-0.027,44.348,34.396,79.197,78.449,79.42c43.381,0.22,79.146-35.281,79.085-78.498
	C176.099,54.039,140.826,18.609,97.464,18.509z"/>
</svg>
